<svg width="31" height="31" viewBox="0 0 31 31" fill="#4AD594" xmlns="http://www.w3.org/2000/svg">
<path d="M30.454 29.2375C30.4381 29.5569 30.2981 29.8576 30.064 30.0754C29.8417 30.3117 29.5357 30.4517 29.2116 30.4655C28.6475 30.3808 28.1338 30.0931 27.7669 29.6564C24.7908 26.767 21.8436 23.8777 19.3588 21.4506C18.9418 21.1144 18.6185 20.6766 18.4197 20.1792C18.3041 19.7025 18.6075 19.2691 19.3154 18.5178C20.505 17.3945 21.3481 15.9541 21.7449 14.3667C22.1418 12.7794 22.0758 11.1117 21.5547 9.56073C21.0772 7.95849 20.1565 6.52383 18.8989 5.42215C17.6413 4.32047 16.098 3.59664 14.4468 3.33409C13.8854 3.22394 13.3142 3.1707 12.7421 3.17518C10.6679 3.18665 8.65697 3.89094 7.02886 5.17615C5.40076 6.46136 4.24883 8.25377 3.75606 10.2686C3.36698 12.2059 3.6138 14.217 4.45979 16.0028C5.30579 17.7885 6.70574 19.2533 8.45132 20.1792H3.97277C2.42502 18.5368 1.38588 16.4815 0.980819 14.2614C0.575764 12.0412 0.822125 9.75133 1.69015 7.66818C2.63595 5.52692 4.18154 3.70534 6.14021 2.4235C8.09887 1.14165 10.3868 0.454374 12.7276 0.444702C13.0743 0.444702 13.4211 0.444702 13.7678 0.444702C15.9029 0.613395 17.9525 1.35707 19.699 2.59678C21.4455 3.83649 22.8238 5.52598 23.6874 7.48589C24.5511 9.44581 24.868 11.603 24.6044 13.7285C24.3408 15.854 23.5066 17.8684 22.1904 19.558L21.887 20.0059L22.0892 20.2081L24.4441 22.5341L29.645 27.6917C30.1003 28.0862 30.3894 28.6385 30.454 29.2375Z" fill="white"/>
</svg>
