<svg width="16" height="16" viewBox="0 0 16 16" fill="none" xmlns="http://www.w3.org/2000/svg">
<rect width="16" height="16" rx="2" fill="#2E7BED"/>
<path d="M4.99219 13H3.09375V4.54688H4.99219V13ZM2.97656 2.35156C2.97656 2.0599 3.06771 1.81771 3.25 1.625C3.4375 1.43229 3.70312 1.33594 4.04688 1.33594C4.39062 1.33594 4.65625 1.43229 4.84375 1.625C5.03125 1.81771 5.125 2.0599 5.125 2.35156C5.125 2.63802 5.03125 2.8776 4.84375 3.07031C4.65625 3.25781 4.39062 3.35156 4.04688 3.35156C3.70312 3.35156 3.4375 3.25781 3.25 3.07031C3.06771 2.8776 2.97656 2.63802 2.97656 2.35156ZM8.82812 4.54688L8.88281 5.52344C9.50781 4.76823 10.3281 4.39062 11.3438 4.39062C13.1042 4.39062 14 5.39844 14.0312 7.41406V13H12.1328V7.52344C12.1328 6.98698 12.0156 6.59115 11.7812 6.33594C11.5521 6.07552 11.1745 5.94531 10.6484 5.94531C9.88281 5.94531 9.3125 6.29167 8.9375 6.98438V13H7.03906V4.54688H8.82812Z" fill="white"/>
</svg>
