<svg xmlns="http://www.w3.org/2000/svg" enable-background="new 0 0 26 26" viewBox="0 0 26 26"><path d="M13,0C5.82,0,0,5.82,0,13c0,5.364,3.25,9.967,7.887,11.953c-0.03-0.73-0.046-1.854,0.102-2.425c0.229-0.884,1.834-7.711,1.834-7.711s-0.835-1.834-0.245-3.307c0.589-1.473,1.49-2.325,2.947-1.981c1.457,0.344,1.179,2.374,1.081,2.849s-0.77,2.554-1.081,3.7c-0.311,1.146,0.884,3.389,3.307,2.178c2.423-1.212,3.111-5.174,2.832-7.744c-0.278-2.571-3.684-4.797-7.515-3.602c-3.831,1.195-4.281,4.846-4.281,6.115c0,1.326,0.745,2.284,0.909,2.456c0.164,0.172,0.221,0.401,0.221,0.401L7.63,17.363c0,0-0.295,0.581-1.081,0.057c-0.786-0.524-2.652-2.226-2.26-5.272c0.393-3.045,1.507-5.534,5.632-7.171c4.126-1.637,8.252-0.229,10.544,2.521c2.292,2.751,1.932,7.531-0.36,10.61c-2.292,3.078-5.567,2.849-6.68,2.456c-1.113-0.393-1.768-1.375-1.768-1.375s-0.982,3.929-1.146,4.453c-0.104,0.332-0.641,1.242-1.021,1.865C10.608,25.82,11.782,26,13,26c7.18,0,13-5.82,13-13S20.18,0,13,0z"/></svg>