<svg width="16" height="16" viewBox="0 0 16 16" fill="none" xmlns="http://www.w3.org/2000/svg">
<path d="M12.2958 11.1826C12.6089 11.4957 12.6089 11.9826 12.2958 12.2957C12.1393 12.4522 11.948 12.5217 11.7393 12.5217C11.5306 12.5217 11.3393 12.4522 11.1828 12.2957L8.00016 9.11305L4.81755 12.2957C4.66103 12.4522 4.46973 12.5217 4.26103 12.5217C4.05234 12.5217 3.86103 12.4522 3.70451 12.2957C3.39147 11.9826 3.39147 11.4957 3.70451 11.1826L6.88712 8L3.70451 4.81739C3.39147 4.50435 3.39147 4.01739 3.70451 3.70435C4.01755 3.39131 4.50451 3.39131 4.81755 3.70435L8.00016 6.88696L11.1828 3.70435C11.4958 3.39131 11.9828 3.39131 12.2958 3.70435C12.6089 4.01739 12.6089 4.50435 12.2958 4.81739L9.1132 8L12.2958 11.1826Z" fill="#0B1C28"/>
</svg>
