<svg width="500" height="288" viewBox="0 0 500 288" fill="none" xmlns="http://www.w3.org/2000/svg">
<path d="M324.016 207.087H321.654V202.362H324.016V207.087ZM324.016 197.638H321.654V192.913H324.016V197.638ZM324.016 188.189H321.654V183.465H324.016V188.189ZM324.016 178.74H321.654V174.016H324.016V178.74ZM324.016 169.291H321.654V164.567H324.016V169.291ZM200.394 161.811H198.031V159.843H200.394V161.811ZM324.016 159.843H321.654V155.118H324.016V159.843ZM200.394 155.118H198.031V150.394H200.394V155.118ZM324.016 150.394H321.654V145.669H324.016V150.394ZM200.394 145.669H198.031V140.945H200.394V145.669ZM324.016 140.945H321.654V136.22H324.016V140.945ZM200.394 136.22H198.031V131.496H200.394V136.22ZM324.016 131.496H321.654V126.772H324.016V131.496ZM200.394 126.772H198.031V122.047H200.394V126.772ZM324.016 122.047H321.654V117.323H324.016V122.047ZM200.394 117.323H198.031V112.598H200.394V117.323ZM324.016 112.598H321.654V107.874H324.016V112.598ZM200.394 107.874H198.031V103.15H200.394V107.874ZM324.016 103.15H321.654V98.4252H324.016V103.15ZM200.394 98.4252H198.031V93.7008H200.394V98.4252ZM324.016 93.7008H321.654V88.9764H324.016V93.7008ZM200.394 88.9764H198.031V84.252H200.394V88.9764ZM324.016 84.252H321.654V79.5276H324.016V84.252ZM200.394 79.5276H198.031V74.8031H200.394V79.5276ZM324.016 74.8031H321.654V70.0787H324.016V74.8031ZM200.394 70.0787H198.031V65.3543H200.394V70.0787ZM324.016 65.3543H321.654V60.6299H324.016V65.3543ZM200.394 60.6299H198.031V55.1181H199.606V56.2992H200.394V60.6299ZM322.441 57.4803H317.717V55.1181H322.441V57.4803ZM312.992 57.4803H308.268V55.1181H312.992V57.4803ZM303.543 57.4803H298.819V55.1181H303.543V57.4803ZM294.094 57.4803H289.37V55.1181H294.094V57.4803ZM284.646 57.4803H279.921V55.1181H284.646V57.4803ZM275.197 57.4803H270.472V55.1181H275.197V57.4803ZM265.748 57.4803H261.024V55.1181H265.748V57.4803ZM256.299 57.4803H251.575V55.1181H256.299V57.4803ZM246.85 57.4803H242.126V55.1181H246.85V57.4803ZM237.402 57.4803H232.677V55.1181H237.402V57.4803ZM227.953 57.4803H223.228V55.1181H227.953V57.4803ZM218.504 57.4803H213.78V55.1181H218.504V57.4803ZM209.055 57.4803H204.331V55.1181H209.055V57.4803Z" fill="#F5B3A5"/>
<path d="M435.827 2.36221H255.906V155.512H435.827V2.36221Z" fill="#D8E5DF"/>
<path d="M437.008 156.693H254.724V1.18111H437.008V156.693ZM257.087 154.331H434.646V3.54331H257.087V154.331Z" fill="#F5B3A5"/>
<path d="M356.575 69.37C357.126 71.1417 357.441 73.0315 357.441 75C357.441 85.4724 348.937 93.9763 338.465 93.9763C327.992 93.9763 319.488 85.4724 319.488 75C319.488 64.5275 327.992 56.0236 338.465 56.0236H338.504V33.1496H338.465C327.284 33.1496 316.772 37.5197 308.858 45.3937C300.945 53.3071 296.614 63.8189 296.614 75C296.614 86.1811 300.984 96.6929 308.858 104.606C316.772 112.52 327.284 116.85 338.465 116.85C349.646 116.85 360.158 112.48 368.071 104.606C375.984 96.6929 380.315 86.1811 380.315 75C380.315 73.1102 380.197 71.2204 379.921 69.37H356.575Z" fill="#D8E5DF"/>
<path d="M338.425 117.835C326.969 117.835 316.221 113.386 308.11 105.276C300 97.1654 295.551 86.4173 295.551 74.9606C295.551 63.5039 300 52.7559 308.11 44.6457C316.221 36.5354 326.969 32.0866 338.425 32.0866H339.449V33.0709V56.9291H338.425C328.504 56.9291 320.433 65 320.433 74.9213C320.433 84.8425 328.504 92.9134 338.425 92.9134C348.347 92.9134 356.417 84.8425 356.417 74.9213C356.417 73.1103 356.142 71.2992 355.591 69.5669L355.197 68.3071H380.748L380.866 69.1732C381.142 71.1023 381.26 73.0315 381.26 74.9606C381.26 86.4173 376.811 97.1654 368.701 105.276C360.591 113.386 349.882 117.835 338.425 117.835ZM337.48 34.1338C326.929 34.3701 317.008 38.5827 309.528 46.1023C301.811 53.8189 297.559 64.0945 297.559 75C297.559 85.9055 301.811 96.1811 309.528 103.898C317.244 111.614 327.52 115.866 338.425 115.866C349.331 115.866 359.606 111.614 367.323 103.898C375.039 96.1811 379.291 85.9055 379.291 75C379.291 73.4646 379.213 71.8897 379.016 70.3543H357.874C358.228 71.8897 358.425 73.4252 358.425 75C358.425 86.0236 349.488 94.9606 338.465 94.9606C327.441 94.9606 318.504 86.0236 318.504 75C318.504 64.2913 326.969 55.5512 337.52 55.0787V34.1338H337.48Z" fill="#2E2E76"/>
<path d="M320.197 75C320.197 85.0394 328.386 93.2284 338.425 93.2284V105.866C321.417 105.866 307.559 92.0079 307.559 75C307.559 57.9921 321.417 44.1339 338.425 44.1339V56.7716C328.386 56.7716 320.197 64.9606 320.197 75Z" fill="#4AD594"/>
<path d="M339.41 106.85H338.425C320.866 106.85 306.575 92.5591 306.575 75C306.575 57.4409 320.866 43.1496 338.425 43.1496H339.41V57.7559H338.425C328.937 57.7559 321.181 65.5118 321.181 75C321.181 84.4882 328.898 92.2441 338.425 92.2441H339.41V106.85ZM337.441 45.1575C321.417 45.6693 308.543 58.8583 308.543 75C308.543 91.1417 321.417 104.331 337.441 104.843V94.1732C327.323 93.6614 319.213 85.2362 319.213 75C319.213 64.7638 327.284 56.3386 337.441 55.8268V45.1575Z" fill="#2E2E76"/>
<path d="M368.74 80.8661C365.984 95.0787 353.465 105.866 338.465 105.866V93.2284C347.795 93.2284 355.472 86.1811 356.575 77.1653L368.74 80.8661Z" fill="#4AD594"/>
<path d="M338.425 106.85H337.441V105.866V92.2441H338.425C347.165 92.2441 354.528 85.7086 355.551 77.0472L355.709 75.8661L369.882 80.1968L369.724 81.063C366.811 95.9843 353.661 106.85 338.425 106.85ZM339.409 94.1732V104.843C352.992 104.409 364.606 94.8031 367.559 81.5354L357.323 78.4252C355.748 87.2047 348.346 93.7401 339.409 94.1732Z" fill="#2E2E76"/>
<path d="M369.291 75C369.291 77.0079 369.094 78.9764 368.74 80.8661L356.535 77.1654C356.614 76.4567 356.654 75.748 356.654 75C356.654 70.315 354.882 66.0236 351.969 62.7953L361.26 54.252C366.26 59.7244 369.291 67.0079 369.291 75Z" fill="#F5B3A5"/>
<path d="M369.488 82.126L355.472 77.874L355.591 77.0472C355.669 76.3779 355.709 75.7087 355.709 75C355.709 70.748 354.134 66.6535 351.26 63.4645L350.591 62.7559L361.299 52.874L361.969 53.622C367.323 59.4882 370.276 67.0866 370.276 75.0394C370.276 77.0866 370.079 79.1338 369.685 81.1024L369.488 82.126ZM357.598 76.4567L367.953 79.6063C368.189 78.1102 368.307 76.5354 368.307 75C368.307 67.874 365.787 61.063 361.181 55.6299L353.346 62.874C356.142 66.2992 357.677 70.5512 357.677 75C357.638 75.4724 357.638 75.9842 357.598 76.4567Z" fill="#2E2E76"/>
<path d="M301.496 68.7008H285.276V37.7953H287.244V66.7323H301.496V68.7008Z" fill="#2E2E76"/>
<path d="M361.929 63.5433H359.961V38.7795H387.795V40.748H361.929V63.5433Z" fill="#2E2E76"/>
<path d="M405.827 31.9291H395.591V33.8976H405.827V31.9291Z" fill="#2E2E76"/>
<path d="M416.102 38.7402H395.591V40.7087H416.102V38.7402Z" fill="#2E2E76"/>
<path d="M416.102 45.5906H395.591V47.5591H416.102V45.5906Z" fill="#2E2E76"/>
<path d="M296.299 127.362H286.063V129.331H296.299V127.362Z" fill="#2E2E76"/>
<path d="M306.575 134.173H286.063V136.142H306.575V134.173Z" fill="#2E2E76"/>
<path d="M306.575 141.024H286.063V142.992H306.575V141.024Z" fill="#2E2E76"/>
<path d="M286.26 16.8898H276.024V18.8583H286.26V16.8898Z" fill="#2E2E76"/>
<path d="M296.536 23.7008H276.024V25.6693H296.536V23.7008Z" fill="#2E2E76"/>
<path d="M296.536 30.5511H276.024V32.5197H296.536V30.5511Z" fill="#2E2E76"/>
<path d="M380.236 126.575H370V128.543H380.236V126.575Z" fill="#2E2E76"/>
<path d="M390.512 133.386H370V135.354H390.512V133.386Z" fill="#2E2E76"/>
<path d="M390.512 140.236H370V142.205H390.512V140.236Z" fill="#2E2E76"/>
<path d="M381.26 121.654H379.291V96.1024H353.74V94.1339H381.26V121.654Z" fill="#2E2E76"/>
<path d="M297.48 121.654H295.512V92.2441H323.031V94.2126H297.48V121.654Z" fill="#2E2E76"/>
<path d="M378.071 268.819H365.827V286.535H378.071V268.819Z" fill="#2E2E76"/>
<path d="M379.055 287.52H364.842V267.835H379.055V287.52ZM366.811 285.551H377.086V269.803H366.811V285.551Z" fill="#2E2E76"/>
<path d="M455.905 268.898H443.661V286.614H455.905V268.898Z" fill="#D8E5DF"/>
<path d="M456.89 287.598H442.677V267.913H456.89V287.598ZM444.646 285.63H454.921V269.882H444.646V285.63Z" fill="#2E2E76"/>
<path d="M161.929 268.819H149.685V286.535H161.929V268.819Z" fill="#2E2E76"/>
<path d="M162.913 287.52H148.701V267.835H162.913V287.52ZM150.669 285.551H160.945V269.803H150.669V285.551Z" fill="#2E2E76"/>
<path d="M239.764 268.898H227.52V286.614H239.764V268.898Z" fill="#D8E5DF"/>
<path d="M240.748 287.598H226.535V267.913H240.748V287.598ZM228.504 285.63H238.779V269.882H228.504V285.63Z" fill="#2E2E76"/>
<path d="M465.748 263.74H135.079V273.858H465.748V263.74Z" fill="#D8E5DF"/>
<path d="M466.732 274.843H134.094V262.756H466.732V274.843ZM136.063 272.874H464.764V264.724H136.063V272.874Z" fill="#2E2E76"/>
<path d="M220.079 1.18109H114.961V106.299H220.079V1.18109Z" fill="#D8E5DF"/>
<path d="M221.26 107.48H113.78V0H221.26V107.48ZM116.142 105.118H218.898V2.3622H116.142V105.118Z" fill="#F5B3A5"/>
<path d="M121.496 1.33859H119.528V105.866H121.496V1.33859Z" fill="#2E2E76"/>
<path d="M145.157 1.49608H143.189V106.024H145.157V1.49608Z" fill="#2E2E76"/>
<path d="M168.819 1.49608H166.85V106.024H168.819V1.49608Z" fill="#2E2E76"/>
<path d="M192.48 1.49608H190.512V106.024H192.48V1.49608Z" fill="#2E2E76"/>
<path d="M216.102 1.49608H214.134V106.024H216.102V1.49608Z" fill="#2E2E76"/>
<path d="M219.921 5.43307H115.118V7.40158H219.921V5.43307Z" fill="#2E2E76"/>
<path d="M220.079 29.4094H115.276V31.3779H220.079V29.4094Z" fill="#2E2E76"/>
<path d="M220.079 52.7559H115.276V54.7244H220.079V52.7559Z" fill="#2E2E76"/>
<path d="M220.079 76.1024H115.276V78.0709H220.079V76.1024Z" fill="#2E2E76"/>
<path d="M220.079 99.4882H115.276V101.457H220.079V99.4882Z" fill="#2E2E76"/>
<path d="M168.228 79.2126L144.331 55L121.496 78.3858L120.079 77.0079L144.291 52.2047L167.717 75.8661L191.378 28.2677L215.984 53.189L214.606 54.5669L191.89 31.6142L168.228 79.2126Z" fill="#4AD594"/>
<path d="M144.291 58.2283C146.857 58.2283 148.937 56.1484 148.937 53.5827C148.937 51.0169 146.857 48.937 144.291 48.937C141.726 48.937 139.646 51.0169 139.646 53.5827C139.646 56.1484 141.726 58.2283 144.291 58.2283Z" fill="#D8E5DF"/>
<path d="M144.291 59.2126C141.181 59.2126 138.661 56.6929 138.661 53.5827C138.661 50.4724 141.181 47.9528 144.291 47.9528C147.402 47.9528 149.921 50.4724 149.921 53.5827C149.921 56.6929 147.402 59.2126 144.291 59.2126ZM144.291 49.9213C142.283 49.9213 140.63 51.5748 140.63 53.5827C140.63 55.5905 142.283 57.2441 144.291 57.2441C146.299 57.2441 147.953 55.5905 147.953 53.5827C147.953 51.5748 146.339 49.9213 144.291 49.9213Z" fill="#2E2E76"/>
<path d="M120.669 82.2047C123.235 82.2047 125.315 80.1248 125.315 77.559C125.315 74.9933 123.235 72.9134 120.669 72.9134C118.103 72.9134 116.024 74.9933 116.024 77.559C116.024 80.1248 118.103 82.2047 120.669 82.2047Z" fill="#D8E5DF"/>
<path d="M120.669 83.189C117.559 83.189 115.039 80.6693 115.039 77.559C115.039 74.4488 117.559 71.9291 120.669 71.9291C123.78 71.9291 126.299 74.4488 126.299 77.559C126.299 80.6693 123.74 83.189 120.669 83.189ZM120.669 73.8976C118.661 73.8976 117.008 75.5512 117.008 77.559C117.008 79.5669 118.661 81.2205 120.669 81.2205C122.677 81.2205 124.331 79.5669 124.331 77.559C124.331 75.5512 122.677 73.8976 120.669 73.8976Z" fill="#2E2E76"/>
<path d="M167.953 82.2047C170.519 82.2047 172.598 80.1248 172.598 77.559C172.598 74.9933 170.519 72.9134 167.953 72.9134C165.387 72.9134 163.307 74.9933 163.307 77.559C163.307 80.1248 165.387 82.2047 167.953 82.2047Z" fill="#D8E5DF"/>
<path d="M167.953 83.189C164.843 83.189 162.323 80.6693 162.323 77.559C162.323 74.4488 164.843 71.9291 167.953 71.9291C171.063 71.9291 173.583 74.4488 173.583 77.559C173.583 80.6693 171.063 83.189 167.953 83.189ZM167.953 73.8976C165.945 73.8976 164.291 75.5512 164.291 77.559C164.291 79.5669 165.945 81.2205 167.953 81.2205C169.961 81.2205 171.614 79.5669 171.614 77.559C171.614 75.5512 170 73.8976 167.953 73.8976Z" fill="#2E2E76"/>
<path d="M191.614 34.567C194.18 34.567 196.26 32.487 196.26 29.9213C196.26 27.3555 194.18 25.2756 191.614 25.2756C189.048 25.2756 186.968 27.3555 186.968 29.9213C186.968 32.487 189.048 34.567 191.614 34.567Z" fill="#D8E5DF"/>
<path d="M191.614 35.5512C188.504 35.5512 185.984 33.0315 185.984 29.9213C185.984 26.811 188.504 24.2913 191.614 24.2913C194.724 24.2913 197.244 26.811 197.244 29.9213C197.244 33.0315 194.724 35.5512 191.614 35.5512ZM191.614 26.2598C189.606 26.2598 187.953 27.9134 187.953 29.9213C187.953 31.9291 189.606 33.5827 191.614 33.5827C193.622 33.5827 195.276 31.9291 195.276 29.9213C195.276 27.9134 193.661 26.2598 191.614 26.2598Z" fill="#2E2E76"/>
<path d="M215.276 58.5433C217.841 58.5433 219.921 56.4634 219.921 53.8976C219.921 51.3319 217.841 49.252 215.276 49.252C212.71 49.252 210.63 51.3319 210.63 53.8976C210.63 56.4634 212.71 58.5433 215.276 58.5433Z" fill="#D8E5DF"/>
<path d="M215.276 59.5275C212.165 59.5275 209.646 57.0079 209.646 53.8976C209.646 50.7874 212.165 48.2677 215.276 48.2677C218.386 48.2677 220.905 50.7874 220.905 53.8976C220.905 57.0079 218.386 59.5275 215.276 59.5275ZM215.276 50.2362C213.268 50.2362 211.614 51.8898 211.614 53.8976C211.614 55.9055 213.268 57.559 215.276 57.559C217.283 57.559 218.937 55.9055 218.937 53.8976C218.937 51.8898 217.323 50.2362 215.276 50.2362Z" fill="#2E2E76"/>
<path d="M241.732 150.394H170.079V199.646H241.732V150.394Z" fill="#D8E5DF"/>
<path d="M242.913 200.827H168.898V149.213H242.913V200.827ZM171.26 198.465H240.551V151.575H171.26V198.465Z" fill="#F5B3A5"/>
<path d="M185.945 158.858H177.283V192.047H185.945V158.858Z" fill="#4AD594"/>
<path d="M217.362 171.575H208.701V192.047H217.362V171.575Z" fill="#F5B3A5"/>
<path d="M201.732 165.315H193.071V192.047H201.732V165.315Z" fill="#4AD594"/>
<path d="M233.15 177.874H224.488V192.165H233.15V177.874Z" fill="#2E2E76"/>
<path d="M236.969 190.984H174.528V192.953H236.969V190.984Z" fill="#2E2E76"/>
<path d="M277.756 263.74L295.512 235.866H345.276V263.74H277.756Z" fill="#4AD594"/>
<path d="M346.26 264.724H275.984L294.961 234.843H346.26V264.724ZM279.567 262.756H344.291V236.811H296.024L279.567 262.756Z" fill="#2E2E76"/>
<path d="M282.48 263.74L300.236 235.866H350V263.74H282.48Z" fill="#D8E5DF"/>
<path d="M350.984 264.724H280.708L299.685 234.843H350.984V264.724ZM284.291 262.756H349.016V236.811H300.748L284.291 262.756Z" fill="#2E2E76"/>
<path d="M357.52 262.441H298.583C297.52 262.441 296.575 261.693 296.339 260.669L285.591 214.449C285.236 212.992 286.339 211.614 287.835 211.614H346.811C347.874 211.614 348.819 212.362 349.055 213.386L359.803 259.606C360.118 261.024 359.016 262.441 357.52 262.441Z" fill="#4AD594"/>
<path d="M357.52 263.425H298.583C297.047 263.425 295.709 262.362 295.354 260.866L284.606 214.646C284.37 213.661 284.606 212.638 285.236 211.85C285.866 211.063 286.811 210.591 287.835 210.591H346.811C348.346 210.591 349.685 211.654 350.039 213.15L360.787 259.37C361.024 260.354 360.787 261.378 360.157 262.165C359.527 262.953 358.543 263.425 357.52 263.425ZM287.835 212.559C287.441 212.559 287.047 212.756 286.811 213.071C286.575 213.386 286.457 213.819 286.575 214.213L297.323 260.433C297.48 261.024 297.992 261.457 298.622 261.457H357.598C357.992 261.457 358.386 261.26 358.622 260.945C358.858 260.63 358.976 260.197 358.858 259.803L348.11 213.583C347.953 212.992 347.441 212.559 346.811 212.559H287.835Z" fill="#2E2E76"/>
<path d="M361.772 262.441H302.795C301.732 262.441 300.788 261.693 300.551 260.669L289.803 214.449C289.449 212.992 290.551 211.614 292.047 211.614H351.024C352.087 211.614 353.032 212.362 353.268 213.386L364.016 259.606C364.331 261.024 363.228 262.441 361.772 262.441Z" fill="#D8E5DF"/>
<path d="M361.772 263.425H302.795C301.26 263.425 299.921 262.362 299.567 260.866L288.819 214.646C288.583 213.661 288.819 212.638 289.449 211.85C290.079 211.063 291.024 210.591 292.047 210.591H351.024C352.559 210.591 353.898 211.654 354.252 213.15L365 259.37C365.236 260.354 365 261.378 364.37 262.165C363.701 262.953 362.756 263.425 361.772 263.425ZM292.047 212.559C291.654 212.559 291.26 212.756 291.024 213.071C290.787 213.386 290.669 213.819 290.787 214.213L301.535 260.433C301.693 261.024 302.205 261.457 302.835 261.457H361.811C362.205 261.457 362.598 261.26 362.835 260.945C363.071 260.63 363.189 260.197 363.071 259.803L352.323 213.583C352.165 212.992 351.654 212.559 351.024 212.559H292.047Z" fill="#2E2E76"/>
<path d="M303.937 234.252L300.394 216.929H322.835L326.378 234.252H303.937Z" fill="#F5B3A5"/>
<path d="M347.729 211.378L345.812 211.822L357.683 263.063L359.601 262.619L347.729 211.378Z" fill="#2E2E76"/>
<path d="M355.905 239.37C356.775 239.37 357.48 238.665 357.48 237.795C357.48 236.926 356.775 236.22 355.905 236.22C355.036 236.22 354.331 236.926 354.331 237.795C354.331 238.665 355.036 239.37 355.905 239.37Z" fill="#2E2E76"/>
<path d="M494.094 237.008C494.094 237.008 486.614 254.724 457.48 255.906C457.48 255.906 424.016 260.63 415.354 241.339L420.472 229.134L490.945 227.559L494.094 237.008Z" fill="#F5B3A5"/>
<path d="M357.874 211.024C357.874 211.024 352.362 226.772 363.779 237.795L375.591 233.465L369.685 210.236L357.874 211.024Z" fill="#2E2E76"/>
<path d="M368.504 212.598L316.614 222.244C316.614 222.244 315.669 229.527 331.102 226.142C331.102 226.142 328.386 240.433 342.677 237.598C342.677 237.598 345.197 237.047 345.354 234.016C345.354 234.016 350.551 234.055 352.913 231.339L373.622 228.74L368.504 212.598Z" fill="#D8E5DF"/>
<path d="M339.213 238.937C336.417 238.937 334.213 238.15 332.638 236.575C329.882 233.858 329.803 229.567 329.961 227.362C323.779 228.543 319.528 228.11 317.244 226.024C315.394 224.331 315.63 222.205 315.63 222.087L315.709 221.378L369.173 211.457L374.921 229.567L353.386 232.283C351.299 234.37 347.835 234.882 346.22 234.961C345.709 237.283 343.898 238.307 342.913 238.543C341.575 238.819 340.315 238.937 339.213 238.937ZM332.323 224.843L332.047 226.299C332.047 226.339 330.984 232.205 334.016 235.157C335.748 236.89 338.622 237.362 342.48 236.614C342.638 236.575 344.252 236.102 344.37 233.976L344.409 233.031H345.354C345.394 233.031 350.118 233.031 352.165 230.709L352.402 230.433L372.283 227.913L367.795 213.74L317.638 223.071C317.756 223.504 317.992 224.095 318.583 224.646C319.921 225.827 323.15 226.89 330.866 225.197L332.323 224.843Z" fill="#2E2E76"/>
<path d="M490.945 220.669C490.945 220.669 488.189 240.984 481.496 252.087L476.378 286.614H445.669L448.819 220.669H490.945Z" fill="#2E2E76"/>
<path d="M486.614 222.165C486.614 222.165 478.74 245.827 467.323 252.087L456.496 286.614H408.858L422.441 223.622L486.614 222.165Z" fill="#2E2E76"/>
<path d="M456.654 286.929L454.803 286.299L466.732 251.221L467.047 251.024C467.205 250.945 482.047 242.48 485.866 221.772L487.795 222.126C484.095 242.244 470.709 251.102 468.347 252.52L456.654 286.929Z" fill="#D8E5DF"/>
<path d="M461.969 140.669L458.78 114.685L454.803 92.3622L432.48 94.4882C432.48 94.4882 420.984 127.795 440.984 124.291L441.457 138.819L461.969 140.669Z" fill="#D8E5DF"/>
<path d="M463.11 141.732L440.551 139.685L440.079 125.394C436.142 125.866 433.11 124.882 431.103 122.52C424.567 114.842 431.299 95 431.575 94.1732L431.772 93.5826L455.63 91.3386L459.764 114.606L463.11 141.732ZM442.441 137.874L460.827 139.567L457.795 114.803L453.977 93.4252L433.189 95.3937C432.126 98.7402 427.284 115.079 432.52 121.26C434.252 123.307 436.969 123.976 440.788 123.307L441.89 123.11L442.441 137.874Z" fill="#2E2E76"/>
<path d="M423.622 93.8583C423.583 89.4094 430.039 88.937 430.039 88.937C427.874 88.4252 427.244 87.2047 427.323 86.2598C427.795 80.8661 438.583 84.5275 438.583 84.5275C436.417 82.4015 439.646 81.811 439.646 81.811C443.583 81.4567 450.551 84.2519 455.394 86.496C457.047 86.5748 477.716 88.0315 460.472 118.15C460.472 118.15 449.213 120.945 448.543 109.685C448.543 109.685 451.811 104.094 446.772 103.11C445.827 102.913 444.803 103.346 444.252 104.134C443.504 105.236 443.071 106.181 442.835 106.772C442.638 107.244 442.205 107.598 441.693 107.598C441.024 107.598 440.433 107.047 440.433 106.378L440.394 101.929C431.299 101.535 423.661 96.9685 423.622 93.8583Z" fill="#2E2E76"/>
<path d="M494.094 237.205C494.094 237.205 478.346 230.906 454.331 232.283C433.858 233.465 415.472 241.417 415.472 241.417L418.504 225.591L363.78 237.795C363.78 237.795 367.323 229.134 366.142 223.228C364.37 214.291 357.874 211.024 357.874 211.024L403.937 195.276L410.827 157.795C412.047 151.102 416.181 145.236 422.047 141.811L432.559 135.709C435.866 133.78 439.528 132.48 443.307 131.85L461.811 128.74L473.425 132.52C476.969 133.661 479.921 136.181 481.654 139.488C489.724 154.882 510.984 199.409 488.622 201.614L494.094 237.205Z" fill="#4AD594"/>
<path d="M418.78 226.535L418.229 224.646C440.473 218.228 439.173 179.173 439.173 178.78L441.142 178.701C441.142 179.134 441.496 189.016 439.016 199.882C435.63 214.488 428.622 223.701 418.78 226.535Z" fill="#2E2E76"/>
<path d="M484.044 157.273L482.091 157.518L487.662 201.777L489.616 201.531L484.044 157.273Z" fill="#2E2E76"/>
<path d="M334.882 237.441C334.055 233.976 334.449 230 334.449 229.843L336.417 230.039C336.417 230.079 336.063 233.858 336.772 237.008L334.882 237.441Z" fill="#2E2E76"/>
<path d="M338.819 238.228C338.386 236.732 338.386 232.047 338.386 231.496H340.354C340.354 233.386 340.433 236.772 340.709 237.717L338.819 238.228Z" fill="#2E2E76"/>
<path d="M148.425 139.37C148.425 139.37 153.15 138.583 158.268 144.095C158.268 144.095 165.354 151.969 162.598 159.449L156.299 162.598L141.732 145.276L148.425 139.37Z" fill="#2E2E76"/>
<path d="M141.732 147.441L150.748 140.236L154.882 132.52L163.661 124.646C164.567 123.819 166.063 124.409 166.142 125.669C166.299 127.677 166.024 130.354 164.094 132.205C164.094 132.205 172.638 126.732 177.598 125.748C178.937 125.472 180.158 126.457 180.197 127.835C180.276 130.315 179.252 134.646 172.717 139.213L162.283 146.89L150.276 156.772L141.732 147.441Z" fill="#D8E5DF"/>
<path d="M150.276 157.795C150 157.795 149.724 157.677 149.567 157.48L141.024 148.15C140.827 147.953 140.748 147.677 140.787 147.402C140.827 147.126 140.945 146.89 141.142 146.693L150 139.606L154.055 132.047C154.095 131.929 154.173 131.85 154.252 131.772L163.032 123.898C163.74 123.268 164.724 123.11 165.591 123.425C166.457 123.78 167.047 124.606 167.126 125.551C167.244 126.969 167.126 128.228 166.811 129.37C169.803 127.638 174.252 125.354 177.441 124.724C178.346 124.528 179.291 124.764 180.039 125.354C180.748 125.945 181.22 126.811 181.22 127.756C181.339 130.748 180.039 135.315 173.307 140L162.913 147.677L150.906 157.559C150.709 157.717 150.472 157.795 150.276 157.795ZM143.15 147.559L150.354 155.433L161.654 146.142L161.693 146.102L172.126 138.425C178.465 134.016 179.291 129.921 179.213 127.874C179.213 127.52 179.055 127.165 178.74 126.969C178.465 126.732 178.11 126.654 177.756 126.732C173.032 127.638 164.685 132.992 164.567 133.071C164.134 133.346 163.583 133.268 163.268 132.835C162.953 132.402 162.992 131.85 163.346 131.496C165.039 129.882 165.236 127.48 165.079 125.748C165.039 125.472 164.843 125.354 164.764 125.315C164.646 125.276 164.449 125.236 164.252 125.394L155.63 133.15L151.575 140.709C151.496 140.827 151.417 140.945 151.339 141.024L143.15 147.559Z" fill="#2E2E76"/>
<path d="M71.2599 142.087L69.7244 118.819C69.7244 118.819 89.567 119.449 72.5985 86.7717L45.5906 97.3623L50.8662 117.323L49.2914 142.284L71.2599 142.087Z" fill="#D8E5DF"/>
<path d="M48.2284 143.268L49.8426 117.402L44.4095 96.7717L73.071 85.5512L73.4647 86.3386C80.4725 99.8032 82.2048 109.488 78.6615 115.118C76.3781 118.74 72.5985 119.567 70.7481 119.764L72.2836 143.11L48.2284 143.268ZM46.7718 97.9528L51.8505 117.205L50.3151 141.26L70.1969 141.102L68.6615 117.756L69.7639 117.795C69.9607 117.795 74.6064 117.874 77.0474 114.016C79.1733 110.63 80.0001 103.386 72.1655 87.9922L46.7718 97.9528Z" fill="#2E2E76"/>
<path d="M59.4882 100.63C59.4882 100.63 56.4961 95.6693 53.4646 99.252C52.1654 100.787 52.3228 104.764 57.4803 106.142C57.4803 106.142 58.8977 115.079 49.8819 116.575C49.8819 116.575 37.7559 105.906 40.7874 92.6772C40.7874 92.6772 25.4331 97.6378 21.9685 83.6221C20.9055 79.4095 23.1102 71.1418 32.441 69.7638C37.0472 69.0945 45.6693 70.7874 46.5748 81.9292C46.5748 81.9292 65.3937 69.6063 75.5512 89.3308C75.5512 89.2914 69.1732 99.6063 59.4882 100.63Z" fill="#2E2E76"/>
<path d="M102.756 236.22C102.756 236.22 93.622 258.386 59.3701 255.472C39.0945 253.78 21.7323 255.079 18.1102 241.732L23.622 225.984L99.6063 224.803L102.756 236.22Z" fill="#4AD594"/>
<path d="M39.3701 199.173C39.3701 199.173 27.126 223.268 22.441 248.543L17.4016 286.575H60.63L91.2599 199.134H39.3701V199.173Z" fill="#2E2E76"/>
<path d="M91.6141 199.173C91.6141 199.173 104.606 261.929 102.441 286.614H45.118L50.9054 202.441L91.6141 199.173Z" fill="#2E2E76"/>
<path d="M76.5861 238.061L59.6945 286.249L61.5521 286.9L78.4438 238.712L76.5861 238.061Z" fill="#D8E5DF"/>
<path d="M10.3544 201.063L16.1811 148.701C16.8898 142.165 20.9056 136.457 26.7717 133.504L48.189 122.835C48.189 122.835 69.4489 143.189 71.4567 123.228L88.3859 130.551C91.6536 131.969 94.7244 133.78 97.5197 135.984L120.866 160.63L148.465 139.173C148.465 139.173 148.898 145.354 151.575 150C155.906 157.48 162.598 159.449 162.598 159.449L127.402 189.213C123.74 192.284 118.504 192.559 114.567 189.843L95.0788 176.378L102.756 236.22C102.756 236.22 93.189 226.811 63.7008 228.465C30.7087 230.315 18.1103 241.732 18.1103 241.732L26.7717 199.724L10.3544 201.063Z" fill="#4AD594"/>
<path d="M38.819 137.992H21.1418L18.9764 141.22L26.1812 150.591H43.8583L38.819 137.992Z" fill="#54B4A6"/>
<path d="M45.3149 151.575H25.7086L17.7559 141.26L20.5905 137.008H39.4488L45.3149 151.575ZM26.6929 149.606H42.4015L38.1496 138.937H21.6535L20.1574 141.142L26.6929 149.606Z" fill="#2E2E76"/>
<path d="M84.5276 224.134H34.4489L4.567 152.52C3.89771 150.866 4.05519 148.976 5.03944 147.52C5.55125 146.772 6.41739 146.299 7.32291 146.299H57.9528C59.0946 146.299 60.1575 147.008 60.5512 148.11L87.0867 220.472C87.7953 222.244 86.4568 224.134 84.5276 224.134Z" fill="#54B4A6"/>
<path d="M84.5275 225.118H33.8189L3.70077 152.874C2.874 150.906 3.11022 148.701 4.29132 146.929C4.99998 145.906 6.14172 145.276 7.40156 145.276H58.0315C59.6063 145.276 61.0236 146.26 61.5354 147.717L88.0709 220.079C88.5039 221.22 88.3071 222.52 87.6378 223.504C86.8897 224.528 85.748 225.118 84.5275 225.118ZM35.1181 223.15H84.5669C85.1575 223.15 85.6693 222.874 86.0236 222.402C86.3779 221.929 86.4173 221.339 86.2205 220.787L59.6457 148.425C59.4094 147.717 58.7401 147.244 57.9921 147.244H7.36219C6.77164 147.244 6.22046 147.52 5.9055 148.032C5.07872 149.252 4.96061 150.787 5.5118 152.126L35.1181 223.15Z" fill="#2E2E76"/>
<path d="M80.8268 224.134H32.6771C31.5354 224.134 30.4724 223.425 30.0787 222.323L4.99998 154.331C4.33069 152.52 5.66928 150.63 7.59841 150.63H55.748C56.8898 150.63 57.9527 151.339 58.3464 152.441L83.4252 220.433C84.0551 222.244 82.7559 224.134 80.8268 224.134Z" fill="#D8E5DF"/>
<path d="M80.8268 225.118H32.6772C31.1024 225.118 29.7245 224.134 29.1733 222.677L4.09454 154.685C3.66146 153.543 3.81895 152.244 4.52761 151.26C5.23627 150.276 6.378 149.646 7.59848 149.646H55.7481C57.3229 149.646 58.7008 150.63 59.252 152.087L84.3308 220.079C84.7638 221.221 84.6063 222.52 83.8977 223.504C83.189 224.528 82.0473 225.118 80.8268 225.118ZM7.5591 151.614C6.96855 151.614 6.45674 151.89 6.10241 152.362C5.74808 152.835 5.70871 153.425 5.90556 153.976L30.9843 221.969C31.2205 222.677 31.8898 223.11 32.6378 223.11H80.7875C81.378 223.11 81.8898 222.835 82.2441 222.362C82.5985 221.89 82.6378 221.299 82.441 220.748L57.3623 152.756C57.126 152.047 56.4567 151.614 55.7087 151.614H7.5591Z" fill="#2E2E76"/>
<path d="M48.0316 182.756L59.4095 174.646H71.693C71.693 174.646 73.5434 177.874 66.378 180.669L72.6772 181.221C72.6772 181.221 81.5355 182.48 78.6615 195.236L70.5119 198.386L55.2757 195.709C55.2757 195.709 32.3623 210.945 23.7009 213.78C20.2757 214.882 13.4253 214.921 10.7087 207.559C8.54337 201.693 11.1418 195.472 23.4253 190.827L48.0316 182.756Z" fill="#D8E5DF"/>
<path d="M20.1576 215.354C16.4174 215.354 11.8899 213.78 9.76387 207.953C7.83473 202.756 8.62213 195.394 23.071 189.961H23.1103L47.5591 181.89L58.819 173.858C58.9765 173.74 59.1733 173.661 59.4095 173.661H71.693C72.0473 173.661 72.3623 173.858 72.5591 174.173C72.6379 174.291 73.2284 175.394 72.6773 176.929C72.2836 178.071 71.3387 179.095 69.9214 180.039L72.756 180.276H72.7954C72.9528 180.276 76.2206 180.787 78.3859 183.937C80.3151 186.732 80.7088 190.63 79.6064 195.512C79.5277 195.827 79.2914 196.102 79.0158 196.22L70.8662 199.37C70.7088 199.449 70.5119 199.449 70.3544 199.409L55.5119 196.811C52.5591 198.78 32.2442 212.087 24.0552 214.764C22.9528 215.079 21.6143 215.354 20.1576 215.354ZM23.7402 191.811C16.5749 194.528 8.70087 199.37 11.6143 207.284C14.0552 213.937 20.1576 213.937 23.3859 212.913C31.8111 210.158 54.4883 195.118 54.7245 194.961C54.9213 194.803 55.1969 194.764 55.4332 194.803L70.3938 197.402L77.7954 194.528C78.6615 190.433 78.3072 187.244 76.7717 185.039C75.1576 182.717 72.7954 182.244 72.5591 182.205L66.2993 181.654C65.8269 181.614 65.4725 181.26 65.3938 180.827C65.3151 180.354 65.5906 179.921 66.0237 179.764C69.567 178.386 70.5513 177.008 70.8269 176.299C70.945 176.024 70.945 175.827 70.945 175.63H59.7245L48.6221 183.543C48.5434 183.583 48.4646 183.661 48.3465 183.661L23.7402 191.811Z" fill="#2E2E76"/>
<path d="M95.8267 195.984L93.9763 176.26L94.8031 176.063C95.9842 175.787 96.811 175.079 97.3228 173.976C99.8819 168.268 93.3071 153.386 90.5511 148.15L92.2834 147.244C92.7165 148.032 102.598 167.087 99.0945 174.803C98.4645 176.22 97.4409 177.205 96.063 177.717L97.7559 195.787L95.8267 195.984Z" fill="#2E2E76"/>
<path d="M36.6536 141.929H18.9764L23.4646 153.11C23.819 153.976 24.6457 154.528 25.5906 154.528H38.3465C39.9607 154.528 41.0631 152.913 40.4725 151.378L36.6536 141.929Z" fill="#D8E5DF"/>
<path d="M38.307 155.551H25.5905C24.2519 155.551 23.0708 154.764 22.559 153.504L17.559 140.984H37.3621L41.4172 151.102C41.8109 152.126 41.6928 153.268 41.1023 154.134C40.433 155 39.4094 155.551 38.307 155.551ZM20.433 142.913L24.37 152.756C24.5668 153.268 25.0393 153.583 25.5905 153.583H38.3464C38.7794 153.583 39.1731 153.386 39.4094 152.992C39.6456 152.638 39.6849 152.205 39.5275 151.772L35.9842 142.913H20.433Z" fill="#2E2E76"/>
<path d="M37.9684 137.454L35.4535 141.407L37.1143 142.463L39.6292 138.51L37.9684 137.454Z" fill="#2E2E76"/>
<path d="M500 286.024H0V287.992H500V286.024Z" fill="#2E2E76"/>
</svg>
