<svg width="19" height="19" viewBox="0 0 19 19" fill="none" xmlns="http://www.w3.org/2000/svg">
<path fill-rule="evenodd" clip-rule="evenodd" d="M9.44807 18.2291C4.10613 18.2291 0.815809 14.4697 0.815809 9.69521C0.793008 7.16286 1.79916 4.72975 3.60382 2.95311C5.40849 1.17647 7.85705 0.208525 10.3887 0.270955C15.2615 0.270955 18.8979 3.26399 18.8979 7.98889C18.8979 12.2926 16.6225 13.9997 14.3464 13.9997C13.3699 14.0509 12.4428 13.5676 11.9255 12.7378C11.0982 13.5076 10.0129 13.9401 8.88291 13.9502C6.16162 13.9502 4.77968 12.0209 4.77968 9.69212C4.73338 8.25019 5.28225 6.85269 6.29746 5.82766C7.31268 4.80263 8.70483 4.24034 10.1472 4.27276C10.9422 4.24784 11.7238 4.48236 12.3737 4.94089L12.4728 4.5205H14.8225L13.6612 9.96231C13.4383 11.0508 13.686 11.9164 14.7497 11.9164C16.0605 11.9164 16.8277 10.8279 16.8277 7.93392C16.8277 4.07534 13.7851 2.26915 10.3717 2.26915C8.3871 2.19807 6.46296 2.95874 5.06346 4.36764C3.66397 5.77654 2.91621 7.70574 3.00058 9.68979C3.00058 13.5979 5.49891 16.1458 9.45658 16.1458C10.9675 16.1573 12.4596 15.8097 13.8099 15.1316L14.6259 17.1352C12.9886 17.8365 11.2291 18.2083 9.44807 18.2291ZM9.27427 11.6245C9.94556 11.6505 10.5981 11.4 11.0797 10.9316L11.8709 7.27046C11.4207 6.81802 10.8059 6.56792 10.1677 6.57756C9.40033 6.57045 8.66376 6.879 8.13059 7.43092C7.59741 7.98283 7.31447 8.72961 7.34807 9.49627C7.34575 10.7838 7.96433 11.6245 9.27504 11.6245H9.27427Z" fill="#58636B"/>
</svg>
