<svg width="24" height="24" viewBox="0 0 24 24" fill="none" xmlns="http://www.w3.org/2000/svg">
<path fill-rule="evenodd" clip-rule="evenodd" d="M5.23557 9.88256V7.0593C5.23557 3.16055 8.39612 0 12.2949 0C16.1936 0 19.3542 3.16056 19.3542 7.0593V9.88256H20.7658C22.325 9.88256 23.589 11.1466 23.589 12.7058V21.1767C23.5898 22.7346 22.3264 23.9992 20.7672 24L3.81935 24C2.26056 24 0.996725 22.7367 0.996094 21.1779V12.707C0.996855 11.1463 2.26149 9.88294 3.82073 9.8837L5.23557 9.88256ZM12.295 2.82325C9.95362 2.82325 8.05554 4.72132 8.05554 7.06272V9.88598H16.5265V7.05928C16.5247 4.72118 14.63 2.82586 12.2917 2.82325L12.295 2.82325Z" fill="#58636B"/>
</svg>
