<svg width="107" height="24" viewBox="0 0 107 24" fill="none" xmlns="http://www.w3.org/2000/svg">
<g clip-path="url(#clip0)">
<path d="M29.3556 11.6666C30.9779 11.6666 32.0667 12.4 32.7334 13.3111V0.33331C32.7334 0.0888652 32.4445 -0.06669 32.2445 0.0888656L16.2223 11.8H16.6445C18.3112 11.8 19.1556 12.8666 19.1556 14.0222C19.1556 14.9333 18.689 15.6 18.0445 15.8889C17.9334 15.9333 17.9334 16.0889 18.0445 16.1333C18.7779 16.4444 19.3112 17.2222 19.3112 18.1555C19.3112 19.4889 18.4445 20.5333 16.7779 20.5333H12.2223C12.1334 20.5333 12.0445 20.4667 12.0445 20.3555V14.8444L0.111185 23.5778C-0.0888148 23.7555 7.33535e-05 24.0667 0.26674 24.0667H32.4445C32.6001 24.0667 32.7112 23.9555 32.7112 23.8V19.3778C31.8445 20.1778 30.7112 20.6889 29.3334 20.6889C26.7556 20.6889 24.6667 18.9111 24.6667 16.1778C24.689 13.4222 26.8001 11.6666 29.3556 11.6666ZM22.9778 20.3778C22.9778 20.4666 22.9112 20.5333 22.8223 20.5333H21.289C21.2001 20.5333 21.1334 20.4666 21.1334 20.3778V11.9555C21.1334 11.8666 21.2001 11.8 21.289 11.8H22.8223C22.9112 11.8 22.9778 11.8666 22.9778 11.9555V20.3778Z" fill="white"/>
<path d="M14.0889 15.2666H16.2445C16.8667 15.2666 17.2667 14.9111 17.2667 14.3555C17.2667 13.8222 16.8667 13.4444 16.2445 13.4444H14C13.9556 13.4444 13.9111 13.4888 13.9111 13.5333V15.1111C13.9111 15.2 14 15.2666 14.0889 15.2666Z" fill="white"/>
<path d="M14.0889 18.9111H16.3334C17.0222 18.9111 17.4445 18.5333 17.4445 17.9111C17.4445 17.3555 17.0445 16.9111 16.3334 16.9111H14.0889C14 16.9111 13.9111 16.9777 13.9111 17.0888V18.7333C13.9111 18.8222 14 18.9111 14.0889 18.9111Z" fill="white"/>
<path d="M31.3334 14.3111C30.9112 13.7556 30.2001 13.3111 29.3557 13.3111C27.7557 13.3111 26.6001 14.5334 26.6001 16.1778C26.6001 17.8222 27.7557 19.0445 29.3557 19.0445C30.089 19.0445 30.7779 18.7333 31.1557 18.4222C31.1779 18.4 31.2001 18.3556 31.2001 18.3111V17.4667C31.2001 17.4 31.1334 17.3334 31.0668 17.3334H29.089C28.9779 17.3334 28.9112 17.2445 28.9112 17.1556V15.9111C28.9112 15.8 29.0001 15.7334 29.089 15.7334H32.7557V13.7556L31.5779 14.4C31.489 14.4222 31.3779 14.3778 31.3334 14.3111Z" fill="white"/>
<path d="M34.1111 16.1777C34.1111 13.4888 36.0444 11.6666 38.5333 11.6666C40.1555 11.6666 41.2 12.4888 41.8222 13.4888C41.8666 13.5555 41.8444 13.6666 41.7555 13.6888L40.7555 14.2222C40.6889 14.2666 40.6 14.2444 40.5777 14.1777C40.1555 13.511 39.3777 13.0222 38.5333 13.0222C36.8666 13.0222 35.6222 14.3333 35.6222 16.1777C35.6222 17.9999 36.8666 19.3333 38.5333 19.3333C39.3777 19.3333 40.1555 18.8444 40.5777 18.1777C40.6222 18.111 40.6889 18.0888 40.7555 18.1333L41.7555 18.6444C41.8444 18.6888 41.8666 18.7777 41.8222 18.8666C41.1777 19.8666 40.1333 20.711 38.5333 20.711C36.0444 20.6888 34.1111 18.8444 34.1111 16.1777Z" fill="white"/>
<path d="M42.689 16.1777C42.689 14 43.9334 12.3111 45.8001 11.8222C48.9779 10.9777 51.889 13.9555 51.2001 17.2666C50.7779 19.3111 49.1556 20.7111 47.0001 20.7111C44.4667 20.6888 42.689 18.7777 42.689 16.1777ZM49.7779 16.1777C49.7779 14.3777 48.6667 13.0222 46.9779 13.0222C45.2667 13.0222 44.1779 14.3777 44.1779 16.1777C44.1779 17.9777 45.2667 19.3333 46.9779 19.3333C48.689 19.3333 49.7779 17.9555 49.7779 16.1777Z" fill="white"/>
<path d="M60.3556 20.4222V13.7777L57.7112 20.4666C57.7112 20.4888 57.6667 20.511 57.6445 20.511H57.0889C57.0667 20.511 57.0223 20.4888 57.0223 20.4666L54.3556 13.7777V20.4222C54.3556 20.4888 54.3112 20.5333 54.2445 20.5333H52.9112C52.8445 20.5333 52.8 20.4888 52.8 20.4222V11.8888C52.8 11.8222 52.8445 11.7777 52.9112 11.7777H54.8223C54.9112 11.7777 54.9778 11.8222 55.0223 11.911L57.3556 17.911L59.6667 11.911C59.6889 11.8222 59.7778 11.7777 59.8667 11.7777H61.7778C61.8445 11.7777 61.8889 11.8222 61.8889 11.8888V20.4222C61.8889 20.4888 61.8445 20.5333 61.7778 20.5333H60.4445C60.4223 20.5333 60.3556 20.4888 60.3556 20.4222Z" fill="white"/>
<path d="M75.4666 20.3777V11.9555C75.4666 11.8666 75.5332 11.8 75.6221 11.8H81.2888C81.3777 11.8 81.4443 11.8666 81.4443 11.9555V12.9777C81.4443 13.0666 81.3777 13.1333 81.2888 13.1333H77.1554C77.0666 13.1333 76.9999 13.2 76.9999 13.2888V15.2222C76.9999 15.3111 77.0666 15.3777 77.1554 15.3777H81.1999C81.2888 15.3777 81.3554 15.4444 81.3554 15.5333V16.5555C81.3554 16.6444 81.2888 16.7111 81.1999 16.7111H77.1554C77.0666 16.7111 76.9999 16.7777 76.9999 16.8666V18.9777C76.9999 19.0666 77.0666 19.1333 77.1554 19.1333H81.2888C81.3777 19.1333 81.4443 19.2 81.4443 19.2888V20.3111C81.4443 20.4 81.3777 20.4666 81.2888 20.4666H75.6221C75.5332 20.5333 75.4666 20.4666 75.4666 20.3777Z" fill="white"/>
<path d="M88.5556 20.4444L86.7112 17.3333C86.689 17.2888 86.6223 17.2666 86.5779 17.2666H85.289C85.2001 17.2666 85.1334 17.3333 85.1334 17.4222V20.3777C85.1334 20.4666 85.0668 20.5333 84.9779 20.5333H83.7779C83.689 20.5333 83.6223 20.4666 83.6223 20.3777V11.9555C83.6223 11.8666 83.689 11.8 83.7779 11.8H87.4668C89.2001 11.8 90.3334 12.9111 90.3334 14.5333C90.3334 15.9777 89.4445 16.8 88.4668 17.0444C88.3557 17.0666 88.3112 17.1777 88.3557 17.2888C88.7112 17.8666 89.8223 19.6444 90.2445 20.2888C90.3112 20.4 90.2445 20.5333 90.1112 20.5333H88.7112C88.6445 20.5333 88.6001 20.5111 88.5556 20.4444ZM88.7556 14.5111C88.7556 13.6666 88.1334 13.1333 87.2668 13.1333H85.3112C85.2223 13.1333 85.1557 13.2 85.1557 13.2888V15.7555C85.1557 15.8444 85.2223 15.9111 85.3112 15.9111H87.2668C88.1334 15.9111 88.7556 15.3777 88.7556 14.5111Z" fill="white"/>
<path d="M100.689 20.3777V11.9555C100.689 11.8666 100.756 11.8 100.845 11.8H106.533C106.622 11.8 106.689 11.8666 106.689 11.9555V13C106.689 13.0888 106.622 13.1555 106.533 13.1555H102.378C102.289 13.1555 102.222 13.2222 102.222 13.3111V15.2666C102.222 15.3555 102.289 15.4222 102.378 15.4222H106.422C106.511 15.4222 106.578 15.4888 106.578 15.5777V16.6222C106.578 16.7111 106.511 16.7777 106.422 16.7777H102.378C102.289 16.7777 102.222 16.8444 102.222 16.9333V19.0666C102.222 19.1555 102.289 19.2222 102.378 19.2222H106.533C106.622 19.2222 106.689 19.2888 106.689 19.3777V20.4222C106.689 20.5111 106.622 20.5777 106.533 20.5777H100.845C100.756 20.5333 100.689 20.4666 100.689 20.3777Z" fill="white"/>
<path d="M91.4446 16.1333C91.4446 13.4444 93.3779 11.6222 95.8668 11.6222C97.489 11.6222 98.5335 12.4444 99.1557 13.4444C99.2001 13.5111 99.1779 13.6222 99.089 13.6444L98.089 14.1778C98.0224 14.2222 97.9335 14.2 97.9112 14.1333C97.489 13.4667 96.7112 12.9778 95.8668 12.9778C94.2001 12.9778 92.9557 14.2889 92.9557 16.1333C92.9557 17.9556 94.2001 19.2889 95.8668 19.2889C96.7112 19.2889 97.489 18.8 97.9112 18.1333C97.9557 18.0667 98.0224 18.0444 98.089 18.0889L99.089 18.6C99.1779 18.6444 99.2001 18.7333 99.1557 18.8222C98.5113 19.8222 97.4668 20.6667 95.8668 20.6667C93.3779 20.6444 91.4446 18.8222 91.4446 16.1333Z" fill="white"/>
<path d="M71.6889 20.4222V13.7777L69.0444 20.4666C69.0444 20.4888 69 20.511 68.9777 20.511H68.4222C68.4 20.511 68.3555 20.4888 68.3555 20.4666L65.6889 13.7777V20.4222C65.6889 20.4888 65.6444 20.5333 65.5777 20.5333H64.2444C64.1777 20.5333 64.1333 20.4888 64.1333 20.4222V11.8888C64.1333 11.8222 64.1777 11.7777 64.2444 11.7777H66.1555C66.2444 11.7777 66.3111 11.8222 66.3555 11.911L68.6889 17.911L71 11.911C71.0222 11.8222 71.1111 11.7777 71.2 11.7777H73.1111C73.1777 11.7777 73.2222 11.8222 73.2222 11.8888V20.4222C73.2222 20.4888 73.1777 20.5333 73.1111 20.5333H71.7777C71.7333 20.5333 71.6889 20.4888 71.6889 20.4222Z" fill="white"/>
</g>
<defs>
<clipPath id="clip0">
<rect width="107" height="24" fill="white"/>
</clipPath>
</defs>
</svg>
