<svg width="136" height="24" viewBox="0 0 136 24" fill="none" xmlns="http://www.w3.org/2000/svg">
<path fill-rule="evenodd" clip-rule="evenodd" d="M11.9985 17.9998L7.91387 20.1472C7.57677 20.3253 7.16776 20.2962 6.85921 20.0723C6.55067 19.8484 6.39626 19.4685 6.46106 19.0928L7.24334 14.5449L3.94042 11.3225C3.66785 11.0567 3.56977 10.6593 3.68741 10.2972C3.80505 9.93517 4.11801 9.67129 4.49472 9.61651L9.06104 8.95324L11.1045 4.81662C11.2727 4.47495 11.6205 4.25854 12.0013 4.25854C12.3822 4.25854 12.7299 4.47495 12.8982 4.81662L14.9405 8.95436L19.5068 9.61763C19.8835 9.67241 20.1965 9.93629 20.3141 10.2983C20.4317 10.6604 20.3337 11.0578 20.0611 11.3236L16.7571 14.5444L17.5394 19.0922C17.6042 19.4679 17.4497 19.8478 17.1412 20.0717C16.8327 20.2957 16.4236 20.3247 16.0865 20.1466L11.9985 17.9998Z" fill="#FFBE3D"/>
<path fill-rule="evenodd" clip-rule="evenodd" d="M39.9985 17.9998L35.9139 20.1472C35.5768 20.3253 35.1678 20.2962 34.8592 20.0723C34.5507 19.8484 34.3963 19.4685 34.4611 19.0928L35.2433 14.5449L31.9404 11.3225C31.6679 11.0567 31.5698 10.6593 31.6874 10.2972C31.8051 9.93517 32.118 9.67129 32.4947 9.61651L37.061 8.95324L39.1045 4.81662C39.2727 4.47495 39.6205 4.25854 40.0013 4.25854C40.3822 4.25854 40.7299 4.47495 40.8982 4.81662L42.9405 8.95436L47.5068 9.61763C47.8835 9.67241 48.1965 9.93629 48.3141 10.2983C48.4317 10.6604 48.3337 11.0578 48.0611 11.3236L44.7571 14.5444L45.5394 19.0922C45.6042 19.4679 45.4497 19.8478 45.1412 20.0717C44.8327 20.2957 44.4236 20.3247 44.0865 20.1466L39.9985 17.9998Z" fill="#FFBE3D"/>
<path fill-rule="evenodd" clip-rule="evenodd" d="M67.9985 17.9998L63.9139 20.1472C63.5768 20.3253 63.1678 20.2962 62.8592 20.0723C62.5507 19.8484 62.3963 19.4685 62.4611 19.0928L63.2433 14.5449L59.9404 11.3225C59.6679 11.0567 59.5698 10.6593 59.6874 10.2972C59.8051 9.93517 60.118 9.67129 60.4947 9.61651L65.061 8.95324L67.1045 4.81662C67.2727 4.47495 67.6205 4.25854 68.0013 4.25854C68.3822 4.25854 68.7299 4.47495 68.8982 4.81662L70.9405 8.95436L75.5068 9.61763C75.8835 9.67241 76.1965 9.93629 76.3141 10.2983C76.4317 10.6604 76.3337 11.0578 76.0611 11.3236L72.7571 14.5444L73.5394 19.0922C73.6042 19.4679 73.4497 19.8478 73.1412 20.0717C72.8327 20.2957 72.4236 20.3247 72.0865 20.1466L67.9985 17.9998Z" fill="#FFBE3D"/>
<path fill-rule="evenodd" clip-rule="evenodd" d="M95.9985 17.9998L91.9139 20.1472C91.5768 20.3253 91.1678 20.2962 90.8592 20.0723C90.5507 19.8484 90.3963 19.4685 90.4611 19.0928L91.2433 14.5449L87.9404 11.3225C87.6679 11.0567 87.5698 10.6593 87.6874 10.2972C87.8051 9.93517 88.118 9.67129 88.4947 9.61651L93.061 8.95324L95.1045 4.81662C95.2727 4.47495 95.6205 4.25854 96.0013 4.25854C96.3822 4.25854 96.7299 4.47495 96.8982 4.81662L98.9405 8.95436L103.507 9.61763C103.884 9.67241 104.196 9.93629 104.314 10.2983C104.432 10.6604 104.334 11.0578 104.061 11.3236L100.757 14.5444L101.539 19.0922C101.604 19.4679 101.45 19.8478 101.141 20.0717C100.833 20.2957 100.424 20.3247 100.087 20.1466L95.9985 17.9998Z" fill="#FFBE3D"/>
<path fill-rule="evenodd" clip-rule="evenodd" d="M123.999 17.9998L119.914 20.1472C119.577 20.3253 119.168 20.2962 118.859 20.0723C118.551 19.8484 118.396 19.4685 118.461 19.0928L119.243 14.5449L115.94 11.3225C115.668 11.0567 115.57 10.6593 115.687 10.2972C115.805 9.93517 116.118 9.67129 116.495 9.61651L121.061 8.95324L123.104 4.81662C123.273 4.47495 123.62 4.25854 124.001 4.25854C124.382 4.25854 124.73 4.47495 124.898 4.81662L126.94 8.95436L131.507 9.61763C131.884 9.67241 132.196 9.93629 132.314 10.2983C132.432 10.6604 132.334 11.0578 132.061 11.3236L128.757 14.5444L129.539 19.0922C129.604 19.4679 129.45 19.8478 129.141 20.0717C128.833 20.2957 128.424 20.3247 128.087 20.1466L123.999 17.9998Z" fill="#FFBE3D"/>
</svg>
