<svg width="146" height="32" viewBox="0 0 146 32" fill="none" xmlns="http://www.w3.org/2000/svg">
<path d="M44.9301 20.3702L42.0407 16.2673H38.3712V20.3702H35.7708V6.35667H41.5495C42.6353 6.33138 43.714 6.53825 44.7134 6.96344C45.5503 7.31705 46.264 7.91014 46.7649 8.66818C47.2644 9.46283 47.5159 10.3883 47.4872 11.3264C47.5104 12.2926 47.2437 13.2436 46.7215 14.0569C46.1725 14.8307 45.4018 15.42 44.5112 15.7472L47.675 20.3702H44.9301ZM43.9911 9.2894C43.2401 8.75358 42.325 8.49798 41.4051 8.56705H38.3712V14.1436H41.4051C42.3268 14.2085 43.242 13.9477 43.9911 13.4068C44.289 13.1551 44.5238 12.8371 44.6768 12.4784C44.8299 12.1197 44.8968 11.7301 44.8723 11.3409C44.8968 10.9537 44.8298 10.5663 44.6767 10.2099C44.5236 9.85349 44.2887 9.53815 43.9911 9.2894Z" fill="black"/>
<path d="M59.2325 15.8916H50.7666C50.8884 16.6459 51.3039 17.3211 51.9223 17.7698C52.5956 18.2489 53.408 18.4926 54.2338 18.4632C54.77 18.4773 55.3034 18.3806 55.8005 18.1793C56.2977 17.9779 56.7479 17.6762 57.1232 17.293L58.4812 18.781C57.9913 19.3583 57.3658 19.805 56.6609 20.0813C55.7594 20.4161 54.7996 20.5656 53.8389 20.5209C52.8783 20.4763 51.9365 20.2383 51.07 19.8212C50.2067 19.3853 49.4889 18.7076 49.004 17.8709C48.4959 16.9945 48.2408 15.9942 48.2672 14.9815C48.247 13.9731 48.4911 12.9769 48.9751 12.0921C49.463 11.3179 50.1455 10.6852 50.9544 10.2573C51.8406 9.77828 52.8367 9.53923 53.8438 9.56388C54.8178 9.54752 55.7791 9.78661 56.632 10.2573C57.4284 10.7123 58.0795 11.3835 58.5101 12.1932C58.9861 13.0806 59.2249 14.0759 59.2036 15.0826C59.2228 15.256 59.2325 15.5257 59.2325 15.8916ZM51.7634 12.2799C51.1991 12.754 50.8373 13.4259 50.7521 14.158H56.8198C56.7307 13.6177 56.5004 13.1105 56.1521 12.6879C55.8038 12.2653 55.35 11.9423 54.8366 11.7516C54.3233 11.561 53.7686 11.5094 53.2289 11.6022C52.6892 11.6949 52.1836 11.9288 51.7634 12.2799Z" fill="black"/>
<path d="M67.0193 19.7923C66.7028 20.041 66.3391 20.2228 65.9503 20.3269C65.5177 20.4489 65.0706 20.5121 64.6211 20.5147C63.6257 20.5709 62.6471 20.2396 61.8907 19.5901C61.5563 19.2313 61.2991 18.8077 61.1351 18.3454C60.9711 17.8832 60.9037 17.3923 60.9372 16.9029V11.7598H59.2324V9.76615H60.995V7.32462H63.4943V9.76615H66.3837V11.7598H63.4943V16.8452C63.4645 17.2734 63.5988 17.6969 63.8699 18.0298C64.015 18.1746 64.1892 18.2868 64.381 18.359C64.5728 18.4312 64.7778 18.4618 64.9823 18.4488C65.502 18.4778 66.0149 18.3189 66.427 18.0009L67.0193 19.7923Z" fill="black"/>
<path d="M75.7743 10.6907C76.2181 11.1342 76.5603 11.6687 76.7773 12.2574C76.9943 12.8461 77.0809 13.4748 77.0312 14.1002V20.3702H74.6619V19.07C74.3403 19.5497 73.8824 19.9221 73.3472 20.1391C72.6965 20.4042 71.9981 20.5321 71.2957 20.5147C70.5755 20.5271 69.861 20.3843 69.2009 20.0957C68.6155 19.8692 68.112 19.4715 67.7562 18.9544C67.4551 18.4697 67.3043 17.9067 67.3228 17.3363C67.3126 16.895 67.4036 16.4571 67.5889 16.0564C67.7743 15.6557 68.0489 15.3028 68.3919 15.0248C69.3846 14.3658 70.5704 14.0605 71.758 14.158H74.5174V13.9702C74.539 13.6503 74.4907 13.3296 74.376 13.0302C74.2612 12.7309 74.0827 12.4601 73.8528 12.2366C73.2848 11.7985 72.5742 11.5874 71.8592 11.6442C71.2608 11.6423 70.666 11.7349 70.0966 11.9187C69.5697 12.0844 69.0794 12.3492 68.6519 12.6989L67.6695 10.8786C68.2792 10.4322 68.9643 10.0994 69.6921 9.89616C70.5203 9.66894 71.376 9.55712 72.2348 9.56388C73.5127 9.49373 74.7721 9.89466 75.7743 10.6907ZM73.4917 18.2609C73.9688 17.9868 74.3326 17.5513 74.5174 17.033V15.7905H71.9458C70.5011 15.7905 69.7788 16.2528 69.7788 17.2352C69.7752 17.4469 69.8233 17.6562 69.919 17.845C70.0146 18.0338 70.155 18.1965 70.3278 18.3187C70.7574 18.595 71.2622 18.7313 71.7725 18.7088C72.3763 18.7244 72.9722 18.5691 73.4917 18.2609Z" fill="black"/>
<path d="M79.3428 7.49797C79.1915 7.36247 79.0704 7.19658 78.9875 7.01112C78.9047 6.82566 78.8618 6.62481 78.8618 6.42168C78.8618 6.21854 78.9047 6.01769 78.9875 5.83223C79.0704 5.64678 79.1915 5.48088 79.3428 5.34538C79.6566 5.06654 80.0644 4.91686 80.4841 4.92642C80.9026 4.90846 81.3117 5.05346 81.6254 5.33093C81.7721 5.45833 81.8893 5.616 81.9691 5.79308C82.0489 5.97016 82.0894 6.16244 82.0877 6.35666C82.0971 6.56334 82.0619 6.76962 81.9847 6.96153C81.9074 7.15345 81.7898 7.32654 81.6399 7.46908C81.4875 7.61803 81.3066 7.73452 81.1079 7.8115C80.9093 7.88848 80.697 7.92435 80.4841 7.91694C80.0644 7.92649 79.6566 7.77681 79.3428 7.49797ZM79.2272 9.67946H81.7266V20.3702H79.2272V9.67946Z" fill="black"/>
<path d="M84.009 5.51874H86.5084V20.3702H84.009V5.51874Z" fill="black"/>
<path d="M93.125 20.1102C92.2523 19.8746 91.4397 19.456 90.7412 18.8822L91.6369 16.8596C92.2705 17.3494 92.9841 17.7258 93.7462 17.972C94.554 18.2558 95.4037 18.4022 96.2599 18.4054C97.0679 18.4661 97.8761 18.2904 98.5859 17.8998C98.8259 17.7755 99.0262 17.5865 99.1641 17.3541C99.302 17.1217 99.372 16.8553 99.366 16.5851C99.371 16.3974 99.3347 16.2108 99.2599 16.0386C99.185 15.8664 99.0733 15.7127 98.9326 15.5883C98.6139 15.3103 98.2396 15.1034 97.8347 14.9815C97.4013 14.837 96.7945 14.6781 96.0432 14.4903C95.161 14.2908 94.2924 14.035 93.4428 13.7246C92.7922 13.4716 92.2123 13.0652 91.7525 12.54C91.2432 11.9246 90.9806 11.142 91.0157 10.344C91.0111 9.59308 91.2326 8.85813 91.6514 8.23476C92.1389 7.58382 92.7997 7.08318 93.5584 6.79007C94.5429 6.3869 95.6011 6.19495 96.6645 6.22664C97.5179 6.23028 98.3673 6.34193 99.1927 6.55892C99.951 6.74144 100.674 7.04903 101.331 7.46908L100.507 9.49165C99.9087 9.13831 99.268 8.86165 98.6004 8.66817C97.9693 8.49509 97.3188 8.40286 96.6645 8.39368C95.8642 8.33624 95.0649 8.51723 94.3674 8.91377C94.1246 9.06557 93.9269 9.27962 93.7948 9.53367C93.6627 9.78773 93.601 10.0725 93.6162 10.3585C93.6115 10.5419 93.648 10.7241 93.723 10.8916C93.798 11.0591 93.9096 11.2077 94.0496 11.3264C94.3648 11.6016 94.7338 11.8082 95.1331 11.9332C95.5809 12.0777 96.1733 12.251 96.939 12.4388C97.8042 12.5628 98.6589 12.7511 99.4961 13.0023C100.155 13.2547 100.745 13.6608 101.215 14.1869C101.709 14.7982 101.961 15.5693 101.923 16.354C101.928 17.1005 101.707 17.831 101.287 18.4488C100.8 19.0997 100.139 19.6003 99.3805 19.8935C98.3904 20.2949 97.3279 20.4868 96.2599 20.4569C95.2036 20.4948 94.1474 20.378 93.125 20.1102Z" fill="#4AD594"/>
<path d="M105.188 19.8068C104.328 19.3668 103.611 18.6901 103.122 17.8564C102.614 16.98 102.359 15.9798 102.386 14.967C102.355 13.9538 102.61 12.9523 103.122 12.0776C103.628 11.2959 104.337 10.6666 105.174 10.2573C106.098 9.78138 107.125 9.54305 108.164 9.56388C109.127 9.54486 110.08 9.76318 110.938 10.1995C111.699 10.619 112.31 11.2655 112.686 12.0488L110.765 13.1612C110.486 12.6934 110.087 12.3092 109.609 12.0488C108.991 11.7377 108.293 11.6235 107.609 11.7217C106.924 11.8198 106.286 12.1256 105.781 12.5977C105.467 12.9165 105.223 13.2967 105.064 13.7145C104.905 14.1322 104.834 14.5783 104.856 15.0248C104.835 15.47 104.905 15.9148 105.061 16.3321C105.218 16.7494 105.458 17.1304 105.766 17.4519C106.275 17.9234 106.915 18.2286 107.602 18.3267C108.288 18.4248 108.989 18.3111 109.609 18.0009C110.087 17.7405 110.486 17.3563 110.765 16.8885L112.686 18.0009C112.287 18.7921 111.651 19.4387 110.866 19.8501C110.025 20.3079 109.078 20.537 108.121 20.5147C107.1 20.5203 106.094 20.2774 105.188 19.8068Z" fill="#4AD594"/>
<path d="M115.576 19.8068C114.728 19.3647 114.026 18.6876 113.553 17.8564C113.045 16.98 112.79 15.9798 112.816 14.967C112.785 13.9538 113.041 12.9523 113.553 12.0776C114.048 11.2975 114.748 10.6679 115.576 10.2573C116.486 9.80103 117.49 9.56343 118.508 9.56343C119.527 9.56343 120.531 9.80103 121.441 10.2573C122.287 10.7068 122.992 11.3819 123.478 12.2077C123.979 13.0864 124.229 14.0859 124.2 15.0971C124.224 16.1076 123.974 17.1058 123.478 17.9865C122.997 18.8156 122.29 19.4917 121.441 19.9368C120.533 20.402 119.528 20.6447 118.508 20.6447C117.488 20.6447 116.483 20.402 115.576 19.9368V19.8068ZM120.777 17.4519C121.083 17.129 121.322 16.7477 121.478 16.3308C121.634 15.9138 121.705 15.4697 121.687 15.0248C121.705 14.5799 121.634 14.1358 121.478 13.7189C121.322 13.3019 121.083 12.9207 120.777 12.5977C120.164 12.0122 119.349 11.6855 118.501 11.6855C117.654 11.6855 116.839 12.0122 116.226 12.5977C115.926 12.9244 115.694 13.3069 115.543 13.7234C115.392 14.1399 115.324 14.5822 115.344 15.0248C115.324 15.4675 115.392 15.9097 115.543 16.3262C115.694 16.7427 115.926 17.1253 116.226 17.4519C116.839 18.0374 117.654 18.3641 118.501 18.3641C119.349 18.3641 120.164 18.0374 120.777 17.4519Z" fill="#4AD594"/>
<path d="M135.975 9.67946V20.3702H133.591V19.0122C133.203 19.4875 132.708 19.8638 132.146 20.1102C131.538 20.3848 130.878 20.5229 130.21 20.5147C129.598 20.5473 128.985 20.4582 128.407 20.2524C127.829 20.0465 127.298 19.7281 126.844 19.3156C126.408 18.8442 126.074 18.2878 125.863 17.6812C125.651 17.0746 125.567 16.431 125.616 15.7905V9.67946H128.116V15.4582C128.055 16.2319 128.287 17.0003 128.766 17.6108C129.004 17.856 129.293 18.0463 129.612 18.1686C129.932 18.2908 130.274 18.3421 130.615 18.3187C131.007 18.3387 131.399 18.2757 131.765 18.1337C132.131 17.9918 132.463 17.7743 132.739 17.4953C133.308 16.8309 133.593 15.9697 133.533 15.0971V9.67946H135.975Z" fill="#4AD594"/>
<path d="M144.686 19.7923C144.364 20.041 143.996 20.2228 143.603 20.3269C143.17 20.4498 142.723 20.513 142.274 20.5147C141.282 20.5733 140.307 20.2414 139.558 19.5901C139.223 19.2313 138.966 18.8077 138.802 18.3454C138.638 17.8832 138.571 17.3923 138.604 16.9029V11.7598H136.842V9.76615H138.604V7.32462H141.103V9.76615H143.993V11.7598H141.103V16.8452C141.085 17.0576 141.108 17.2717 141.173 17.475C141.237 17.6783 141.341 17.8668 141.479 18.0298C141.622 18.1727 141.794 18.2838 141.983 18.356C142.173 18.4282 142.375 18.4598 142.577 18.4488C143.097 18.4805 143.611 18.3212 144.022 18.0009L144.686 19.7923Z" fill="#4AD594"/>
<path d="M30.4543 30.2375C30.4383 30.5569 30.2984 30.8576 30.0642 31.0754C29.8419 31.3117 29.536 31.4517 29.2118 31.4655C28.6478 31.3808 28.134 31.0931 27.7671 30.6564C24.7911 27.767 21.8439 24.8777 19.359 22.4506C18.9421 22.1144 18.6187 21.6766 18.42 21.1792C18.3044 20.7025 18.6078 20.2691 19.3157 19.5178C20.5053 18.3945 21.3484 16.9541 21.7452 15.3667C22.142 13.7794 22.076 12.1117 21.555 10.5607C21.0774 8.95849 20.1567 7.52383 18.8991 6.42215C17.6416 5.32047 16.0982 4.59664 14.4471 4.33409C13.8856 4.22394 13.3145 4.1707 12.7423 4.17518C10.6681 4.18665 8.65721 4.89094 7.02911 6.17615C5.40101 7.46136 4.24907 9.25377 3.75631 11.2686C3.36722 13.2059 3.61404 15.217 4.46004 17.0028C5.30603 18.7885 6.70599 20.2533 8.45157 21.1792H3.97301C2.42527 19.5368 1.38612 17.4815 0.981064 15.2614C0.576008 13.0412 0.822369 10.7513 1.69039 8.66818C2.63619 6.52692 4.18179 4.70534 6.14045 3.4235C8.09911 2.14165 10.3871 1.45437 12.7279 1.4447C13.0746 1.4447 13.4213 1.4447 13.768 1.4447C15.9032 1.6134 17.9528 2.35707 19.6993 3.59678C21.4458 4.83649 22.824 6.52598 23.6877 8.48589C24.5513 10.4458 24.8682 12.603 24.6046 14.7285C24.341 16.854 23.5069 18.8684 22.1906 20.558L21.8872 21.0059L22.0895 21.2081L24.4443 23.5341L29.6452 28.6917C30.1006 29.0862 30.3896 29.6385 30.4543 30.2375Z" fill="black"/>
<path d="M19.3444 13.4646V13.5801C19.3428 13.6467 19.3274 13.7122 19.299 13.7724C19.2706 13.8326 19.23 13.8863 19.1796 13.9298C19.1292 13.9734 19.0703 14.0059 19.0066 14.0253C18.943 14.0447 18.8759 14.0505 18.8098 14.0424L18.0297 13.9558C17.9097 13.9415 17.7991 13.8836 17.7191 13.793C17.6392 13.7023 17.5954 13.5854 17.5963 13.4646C17.5771 12.1208 17.0695 10.8299 16.1683 9.833C15.267 8.83607 14.0338 8.20121 12.6988 8.04695C12.5826 8.03277 12.4757 7.97634 12.3984 7.88843C12.3212 7.80051 12.2789 7.68724 12.2798 7.5702V6.83341C12.2834 6.76566 12.3006 6.69934 12.3304 6.63838C12.3602 6.57742 12.402 6.52309 12.4532 6.4786C12.5044 6.43412 12.5641 6.4004 12.6286 6.37945C12.6931 6.3585 12.7612 6.35075 12.8288 6.35666C14.5996 6.53093 16.2438 7.35266 17.4462 8.66433C18.6485 9.976 19.3244 11.6853 19.3444 13.4646Z" fill="black"/>
<path d="M19.3445 13.4646V13.5657C19.343 13.6341 19.3271 13.7015 19.298 13.7635C19.2689 13.8254 19.2272 13.8806 19.1755 13.9255C19.1238 13.9704 19.0633 14.004 18.9979 14.0241C18.9324 14.0443 18.8635 14.0505 18.7955 14.0424L18.0443 13.9557C17.9229 13.9418 17.8106 13.8844 17.7283 13.7941C17.646 13.7038 17.5991 13.5867 17.5964 13.4646C17.5772 12.1208 17.0696 10.8299 16.1684 9.83299C15.2672 8.83606 14.0339 8.2012 12.6989 8.04694C12.5827 8.03276 12.4758 7.97634 12.3986 7.88842C12.3213 7.8005 12.2791 7.68723 12.2799 7.57019V6.93453C12.2714 6.85904 12.2794 6.78258 12.3035 6.71054C12.3277 6.63849 12.3673 6.57261 12.4196 6.51753C12.472 6.46245 12.5357 6.4195 12.6064 6.3917C12.6772 6.36391 12.7531 6.35194 12.8289 6.35665C14.5997 6.53092 16.2439 7.35265 17.4463 8.66432C18.6487 9.97599 19.3246 11.6853 19.3445 13.4646Z" fill="#4AD594"/>
</svg>
