<svg width="48" height="48" viewBox="0 0 48 48" fill="none" xmlns="http://www.w3.org/2000/svg">
<path fill-rule="evenodd" clip-rule="evenodd" d="M46.0801 18.8072C46.0801 13.2642 41.5868 8.77092 36.0438 8.77092C30.5007 8.77092 26.0074 13.2642 26.0074 18.8072C26.0074 24.2821 30.3932 28.7303 35.8422 28.8383C33.3082 31.3232 29.8378 32.8583 26.0074 32.8583V38.8799C37.093 38.8799 46.0801 29.8928 46.0801 18.8072ZM1.92008 38.8799C13.0057 38.8799 21.9927 29.8928 21.9927 18.8072C21.9927 13.2642 17.499 8.77092 11.9564 8.77092C6.41336 8.77092 1.92008 13.2642 1.92008 18.8072C1.92008 24.2821 6.30584 28.7303 11.7548 28.8383C9.22088 31.3232 5.75 32.8583 1.92008 32.8583V38.8799Z" fill="#58636B"/>
</svg>
