<svg width="48" height="48" viewBox="0 0 48 48" fill="none" xmlns="http://www.w3.org/2000/svg">
<path fill-rule="evenodd" clip-rule="evenodd" d="M1.91992 29.1928C1.91992 34.7358 6.4132 39.2291 11.9562 39.2291C17.4993 39.2291 21.9926 34.7358 21.9926 29.1928C21.9926 23.7179 17.6068 19.2697 12.1578 19.1617C14.6918 16.6768 18.1622 15.1417 21.9926 15.1417V9.12012C10.907 9.12012 1.91992 18.1072 1.91992 29.1928ZM46.0799 9.12012C34.9943 9.12012 26.0073 18.1072 26.0073 29.1928C26.0073 34.7358 30.501 39.2291 36.0436 39.2291C41.5866 39.2291 46.0799 34.7358 46.0799 29.1928C46.0799 23.7179 41.6942 19.2697 36.2452 19.1617C38.7791 16.6768 42.25 15.1417 46.0799 15.1417V9.12012Z" fill="#58636B"/>
</svg>
