<svg width="84" height="24" viewBox="0 0 84 24" fill="none" xmlns="http://www.w3.org/2000/svg">
<path d="M18.0837 4.58315C18.07 4.45977 17.9604 4.40493 17.8781 4.40493C17.7958 4.40493 15.9999 4.26783 15.9999 4.26783C15.9999 4.26783 14.7523 3.02026 14.6015 2.89688C14.4644 2.75978 14.2039 2.80091 14.0943 2.82833C14.0806 2.82833 13.8201 2.91059 13.3951 3.04768C12.9701 1.82754 12.2435 0.717063 10.9411 0.717063H10.8177C10.4612 0.250938 9.99512 0.0315857 9.61125 0.0315857C6.59515 0.0315857 5.14194 3.80171 4.68953 5.72104C3.51051 6.0912 2.67422 6.33797 2.57826 6.3791C1.9202 6.58474 1.90649 6.59845 1.82423 7.21538C1.75568 7.68151 0.0419922 20.9386 0.0419922 20.9386L13.3814 23.4338L20.62 21.8709C20.6337 21.8435 18.0975 4.70654 18.0837 4.58315ZM12.6548 3.23962C12.3257 3.33558 11.9282 3.45897 11.5306 3.59607V3.34929C11.5306 2.60898 11.4346 2.00576 11.2564 1.52593C11.9419 1.60818 12.3669 2.36221 12.6548 3.23962ZM10.4201 1.67673C10.5983 2.14285 10.7217 2.80091 10.7217 3.70574V3.84284C9.98141 4.0759 9.19996 4.30896 8.3911 4.56944C8.84352 2.84204 9.70722 1.99205 10.4201 1.67673ZM9.5427 0.826739C9.6798 0.826739 9.81689 0.881577 9.92657 0.963834C8.95319 1.41625 7.92498 2.55414 7.49998 4.85734C6.85563 5.06299 6.2387 5.24121 5.64919 5.43314C6.14274 3.67832 7.3766 0.826739 9.5427 0.826739Z" fill="white"/>
<path d="M17.878 4.37751C17.7957 4.37751 15.9998 4.24041 15.9998 4.24041C15.9998 4.24041 14.7522 2.99284 14.6014 2.86946C14.5465 2.81462 14.478 2.7872 14.4232 2.7872L13.4224 23.4337L20.661 21.8709C20.661 21.8709 18.1247 4.70653 18.111 4.58315C18.0562 4.45976 17.9602 4.40493 17.878 4.37751Z" fill="#E5E5E5"/>
<path d="M10.9411 8.38069L10.0637 11.0266C10.0637 11.0266 9.26856 10.6016 8.32261 10.6016C6.91052 10.6016 6.84197 11.4928 6.84197 11.7121C6.84197 12.9185 9.99517 13.3847 9.99517 16.2225C9.99517 18.4572 8.58309 19.8967 6.67746 19.8967C4.37426 19.8967 3.22266 18.4709 3.22266 18.4709L3.83959 16.4419C3.83959 16.4419 5.04603 17.4838 6.06053 17.4838C6.7323 17.4838 7.00649 16.9629 7.00649 16.579C7.00649 15.0024 4.4291 14.9339 4.4291 12.329C4.4291 10.1492 5.99198 8.03795 9.15889 8.03795C10.3379 8.02424 10.9411 8.38069 10.9411 8.38069Z" fill="#0B1C28"/>
<path d="M29.0651 13.3572C28.3385 12.9734 27.9684 12.6306 27.9684 12.1782C27.9684 11.6024 28.4893 11.2323 29.2982 11.2323C30.2442 11.2323 31.0805 11.6161 31.0805 11.6161L31.7385 9.60083C31.7385 9.60083 31.1353 9.1347 29.3531 9.1347C26.8716 9.1347 25.1442 10.5605 25.1442 12.5621C25.1442 13.7 25.9531 14.5637 27.0224 15.1806C27.8998 15.6604 28.2014 16.0169 28.2014 16.5379C28.2014 17.0725 27.7627 17.5112 26.9539 17.5112C25.7612 17.5112 24.6233 16.8943 24.6233 16.8943L23.9241 18.9096C23.9241 18.9096 24.966 19.6088 26.7208 19.6088C29.2708 19.6088 31.1216 18.3475 31.1216 16.0854C31.0942 14.8516 30.1756 14.0016 29.0651 13.3572ZM39.2376 9.10728C37.9763 9.10728 36.9893 9.7105 36.2352 10.6153L36.2078 10.6016L37.3046 4.89845H34.4667L31.6974 19.4306H34.5353L35.4812 14.4677C35.8514 12.5895 36.8247 11.4242 37.7296 11.4242C38.3739 11.4242 38.6207 11.8629 38.6207 12.4798C38.6207 12.8637 38.5933 13.3572 38.4973 13.7411L37.428 19.4306H40.2658L41.3763 13.5629C41.4997 12.946 41.582 12.2056 41.582 11.6984C41.5682 10.0669 40.732 9.10728 39.2376 9.10728ZM47.998 9.10728C44.5706 9.10728 42.3086 12.1919 42.3086 15.633C42.3086 17.8265 43.6658 19.6088 46.2158 19.6088C49.5746 19.6088 51.8367 16.6064 51.8367 13.083C51.8504 11.0403 50.6714 9.10728 47.998 9.10728ZM46.5996 17.4427C45.6263 17.4427 45.2287 16.6201 45.2287 15.5782C45.2287 13.9467 46.065 11.3008 47.6142 11.3008C48.615 11.3008 48.9577 12.1782 48.9577 13.0145C48.9577 14.7556 48.094 17.4427 46.5996 17.4427ZM59.1165 9.10728C57.1971 9.10728 56.1141 10.8073 56.1141 10.8073H56.0866L56.2512 9.28551H53.7286C53.6052 10.3137 53.3722 11.8903 53.1528 13.0556L51.1923 23.4612H54.0302L54.8254 19.2523H54.8939C54.8939 19.2523 55.4834 19.6225 56.5528 19.6225C59.8979 19.6225 62.0777 16.1951 62.0777 12.7403C62.064 10.821 61.2003 9.10728 59.1165 9.10728ZM56.402 17.4701C55.6617 17.4701 55.2229 17.0451 55.2229 17.0451L55.6891 14.3992C56.0181 12.6169 56.9503 11.4516 57.9374 11.4516C58.8148 11.4516 59.0753 12.2605 59.0753 13.0145C59.089 14.8516 57.9923 17.4701 56.402 17.4701ZM66.122 5.03555C65.2172 5.03555 64.4906 5.76215 64.4906 6.68069C64.4906 7.51698 65.0253 8.10649 65.8341 8.10649H65.8616C66.7527 8.10649 67.5067 7.50327 67.5204 6.46134C67.5341 5.62506 66.972 5.03555 66.122 5.03555ZM62.1463 19.4169H64.9841L66.9035 9.32663H64.0519L62.1463 19.4169ZM74.1421 9.31292H72.1679L72.2639 8.8468C72.4284 7.87342 73.0042 7.02343 73.9639 7.02343C74.4711 7.02343 74.8687 7.17424 74.8687 7.17424L75.4171 4.93958C75.4171 4.93958 74.9373 4.69281 73.8679 4.69281C72.8671 4.69281 71.8526 4.98071 71.0849 5.63877C70.1115 6.46134 69.6591 7.65407 69.4397 8.86051L69.3575 9.32663H68.0277L67.6027 11.479H68.9325L67.4244 19.4306H70.2623L71.7704 11.479H73.7308L74.1421 9.31292ZM80.9832 9.32663C80.9832 9.32663 79.2009 13.8097 78.4195 16.2637H78.3921C78.3372 15.4685 77.6929 9.32663 77.6929 9.32663H74.7042L76.4179 18.5669C76.4453 18.7725 76.4316 18.8959 76.3493 19.033C76.0203 19.6773 75.4582 20.2943 74.8002 20.7467C74.2655 21.1305 73.6623 21.391 73.1824 21.5555L73.9776 23.9684C74.5534 23.845 75.7598 23.3652 76.7606 22.4192C78.0493 21.2128 79.2558 19.3346 80.4896 16.7846L83.9581 9.31292H80.9832V9.32663Z" fill="white"/>
</svg>
