<svg width="166" height="24" viewBox="0 0 166 24" fill="none" xmlns="http://www.w3.org/2000/svg">
<g clip-path="url(#clip0)">
<path fill-rule="evenodd" clip-rule="evenodd" d="M6.15418 12.7059L15.4478 3.29882C15.7565 2.9845 16.1249 2.73512 16.5314 2.5654C16.938 2.39568 17.3744 2.30904 17.8149 2.31059C18.2554 2.30927 18.6917 2.39625 19.098 2.56639C19.5043 2.73653 19.8724 2.98638 20.1805 3.30118L20.9045 4.03412L22.353 2.56471L21.629 1.83176C21.1317 1.32467 20.538 0.922188 19.8828 0.648013C19.2276 0.373838 18.5242 0.233511 17.8139 0.235294C16.3716 0.235294 15.0163 0.8 13.9998 1.83529L4.70594 11.24L6.15418 12.7059ZM18.5883 6.42353L17.133 4.95953L7.79582 14.3529C7.48427 14.6664 7.11382 14.9152 6.70578 15.085C6.29774 15.2547 5.86016 15.3422 5.41821 15.3422C4.97625 15.3423 4.53864 15.255 4.13055 15.0853C3.72246 14.9157 3.35194 14.667 3.04029 14.3536C1.729 13.0346 1.729 10.8878 3.04029 9.56894L11.0972 1.46353L9.64194 0L1.58524 8.10494C-0.528412 10.2311 -0.528412 13.6908 1.58524 15.8169C2.60712 16.8452 3.96806 17.4118 5.41747 17.4118C6.13028 17.4137 6.83635 17.2736 7.49444 16.9997C8.15253 16.7258 8.74947 16.3236 9.25041 15.8165L18.5883 6.42353ZM27.8264 8.18259C27.3255 7.67556 26.7286 7.27343 26.0705 6.99968C25.4124 6.72594 24.7064 6.58607 23.9937 6.58824C22.5443 6.58847 21.1824 7.15482 20.1584 8.18353L10.8236 17.5765L12.2782 19.0405L21.6158 9.64706C21.9274 9.33366 22.2979 9.08496 22.7059 8.91523C23.1139 8.74551 23.5515 8.65813 23.9934 8.65811C24.4353 8.65809 24.8729 8.74543 25.281 8.91511C25.689 9.08479 26.0595 9.33346 26.3711 9.64682C26.6845 9.96112 26.9327 10.3342 27.1014 10.7447C27.2701 11.1552 27.3561 11.595 27.3544 12.0388C27.3544 12.944 27.0052 13.7934 26.3709 14.4313L18.3146 22.5365L19.7699 24L27.8264 15.8951C29.9403 13.7687 29.9403 10.3087 27.8264 8.18259ZM23.2579 11.2941L13.9648 20.7012C13.6557 21.0149 13.2873 21.2641 12.881 21.4342C12.4747 21.6042 12.0387 21.6918 11.5982 21.6918C11.1578 21.6919 10.7217 21.6043 10.3154 21.4343C9.90915 21.2643 9.54073 21.0151 9.23159 20.7014L8.50759 19.9685L7.05888 21.4353L7.78288 22.1682C8.2802 22.6754 8.87396 23.0779 9.52919 23.352C10.1844 23.6262 10.8879 23.7665 11.5982 23.7647C13.0405 23.7645 14.3951 23.2 15.4128 22.1647L24.7059 12.76L23.2579 11.2941ZM37.9944 14.4471C38.1121 15.0471 38.3951 15.5172 38.8368 15.8558C39.2784 16.1944 39.8579 16.364 40.5779 16.364C41.2838 16.364 41.8335 16.1974 42.2203 15.8638C42.6071 15.5301 42.8005 15.0915 42.8005 14.5466C42.8005 14.2798 42.7488 14.0525 42.6452 13.8713C42.5417 13.6901 42.3972 13.5325 42.2123 13.4045C42.0273 13.2765 41.7982 13.1682 41.5257 13.0798L40.6081 12.7962L39.7257 12.5464C39.2024 12.4019 38.7337 12.2268 38.3198 12.0209C37.9059 11.8151 37.5509 11.5739 37.2568 11.2962C36.9687 11.0272 36.7404 10.7006 36.5866 10.3376C36.4342 9.97647 36.3577 9.55647 36.3577 9.07882C36.3577 8.57859 36.4558 8.11741 36.6518 7.69482C36.8478 7.27223 37.1257 6.91129 37.4855 6.61129C37.8452 6.31129 38.2808 6.07529 38.7932 5.90259C39.3057 5.72988 39.8824 5.64706 40.5278 5.64706C41.7372 5.64706 42.6963 5.93882 43.405 6.52235C44.1137 7.10588 44.5273 7.88706 44.6473 8.86494L42.6857 9.03153C42.5681 8.53129 42.3262 8.14212 41.9664 7.86447C41.6066 7.58682 41.1052 7.44753 40.4605 7.44753C39.8612 7.44753 39.3923 7.58918 39.0549 7.87271C38.7175 8.15624 38.5476 8.52024 38.5476 8.96447C38.5476 9.22 38.5946 9.43365 38.6951 9.60612C38.7956 9.77859 38.9346 9.92847 39.1201 10.0562C39.3055 10.184 39.5313 10.2981 39.7982 10.3979C40.065 10.4976 40.3676 10.6042 40.7055 10.7151L41.5393 10.9819C42.0617 11.1485 42.5337 11.3235 42.9528 11.5066C43.3718 11.6896 43.7292 11.9096 44.0233 12.1654C44.3175 12.4212 44.5441 12.7268 44.7017 13.0824C44.8593 13.4379 44.9412 13.8776 44.9412 14.4C44.9412 14.956 44.8323 15.4645 44.6146 15.9254C44.4013 16.3808 44.0884 16.7824 43.6991 17.1007C43.3069 17.4231 42.8412 17.6734 42.3015 17.8508C41.7617 18.0282 41.1655 18.1176 40.5116 18.1176C39.3022 18.1176 38.2939 17.8287 37.4876 17.2506C36.6812 16.6725 36.1855 15.8 36.0001 14.6353L37.9942 14.4518L37.9944 14.4471ZM53.3791 7.67224C52.7909 7.67224 52.2655 7.78282 51.8026 8.00353C51.3398 8.22424 50.9473 8.53059 50.6262 8.92259C50.305 9.31459 50.0615 9.77906 49.8904 10.3139C49.7193 10.8487 49.6375 11.4322 49.6375 12.0616C49.6375 12.6911 49.7245 13.2765 49.8963 13.8176C50.0681 14.3588 50.3184 14.8278 50.6398 15.2256C50.9581 15.6206 51.36 15.9402 51.8165 16.1614C52.2791 16.3873 52.8048 16.5002 53.393 16.5002C53.9812 16.5002 54.5066 16.3929 54.9699 16.1779C55.4332 15.9628 55.825 15.6616 56.1464 15.2748C56.4678 14.888 56.7158 14.4219 56.8899 13.8755C57.064 13.3292 57.1488 12.7296 57.1488 12.0784C57.1488 11.4376 57.0617 10.8468 56.8899 10.3059C56.7182 9.76494 56.4678 9.30118 56.1464 8.91459C55.825 8.528 55.4299 8.22447 54.9615 8.00353C54.493 7.78259 53.965 7.67224 53.3765 7.67224H53.3791ZM53.393 5.88C54.2753 5.88 55.0815 6.03224 55.8113 6.33647C56.5412 6.64071 57.1619 7.06635 57.6742 7.61412C58.1864 8.16188 58.5831 8.81741 58.8671 9.58118C59.1511 10.3449 59.2942 11.1816 59.2942 12.0887C59.2942 13.0299 59.1443 13.8786 58.8452 14.6362C58.5462 15.3939 58.1177 16.0471 57.5624 16.6024L59.1311 18.4776V19.0588H57.1377L56.0426 17.6984C55.6498 17.879 55.2391 18.018 54.8172 18.1129C54.3812 18.2125 53.9128 18.2624 53.4121 18.2624C52.5076 18.2624 51.6935 18.1099 50.9692 17.8059C50.245 17.5019 49.629 17.0755 49.1226 16.5282C48.6163 15.9809 48.2238 15.3282 47.9462 14.5699C47.6685 13.8115 47.5295 12.9852 47.5295 12.0887C47.5295 11.1816 47.6706 10.3494 47.9459 9.59106C48.2212 8.83271 48.6182 8.18071 49.1304 7.63294C49.6426 7.08518 50.2603 6.65647 50.985 6.34659C51.7097 6.03671 52.513 5.88235 53.3953 5.88235L53.393 5.88ZM67.2942 16.4007C68.1302 16.4007 68.7812 16.1372 69.2483 15.6092C69.7153 15.0812 69.9483 14.2727 69.9483 13.1856V5.88235H72V13.2334C72 14.1002 71.8913 14.8419 71.6742 15.4588C71.457 16.0758 71.1476 16.5812 70.7459 16.976C70.3443 17.3708 69.8504 17.6595 69.2643 17.8428C68.6782 18.0261 68.0236 18.1176 67.2942 18.1176C66.5553 18.1176 65.8965 18.0264 65.3158 17.8428C64.7351 17.6593 64.2436 17.3706 63.8422 16.976C63.4408 16.5814 63.1316 16.0755 62.9137 15.4588C62.6958 14.8421 62.5883 14.1002 62.5883 13.2334V5.88235H64.6401V13.1835C64.6401 14.2729 64.8753 15.0812 65.34 15.6071C65.8048 16.1329 66.4582 16.3986 67.2942 16.3986V16.4007ZM77.8782 12.7515H81.8043L81.1582 10.8833L80.1311 7.88494H79.6177L79.4189 8.44188L79.1953 9.06447L78.9219 9.85129L78.5572 10.8833L77.8779 12.7515H77.8782ZM74.1177 17.3089L78.3422 6.11765H81.4732L85.6471 17.3089V17.8824H83.593L82.4005 14.5233H77.2485L76.0565 17.8824H74.1177V17.3089ZM90.2695 11.4918H92.0577C92.8455 11.4918 93.4659 11.3506 93.9198 11.0616C94.3737 10.7727 94.601 10.3087 94.601 9.65647C94.601 8.99624 94.3709 8.53647 93.9116 8.27647C93.4523 8.01647 92.8346 7.88682 92.0579 7.88682H90.2697V11.4915L90.2695 11.4918ZM97.1765 17.8824H95.1911L91.5982 13.2616H90.2692V17.8824H88.2353V6.11765H92.0579C92.6591 6.11765 93.2311 6.15859 93.7723 6.24047C94.3135 6.32235 94.8033 6.51106 95.241 6.80565C96.1704 7.41741 96.6356 8.34023 96.6356 9.57388C96.6356 10.1094 96.5563 10.5762 96.3972 10.9751C96.2382 11.3739 96.0278 11.712 95.7659 11.9906C95.5043 12.2684 95.1963 12.4983 94.8556 12.6701C94.5109 12.8452 94.1525 12.976 93.7803 13.0631L97.1765 17.3082V17.8824ZM99.7647 6.11765H107.412V7.92H101.788V11.0024H107.019V12.7718H101.788V16.0824H107.529V17.8824H99.7647V6.11765ZM112.112 14.4471C112.232 15.0471 112.513 15.5172 112.954 15.8558C113.395 16.1944 113.975 16.364 114.694 16.364C115.4 16.364 115.95 16.1974 116.337 15.8638C116.724 15.5301 116.917 15.0915 116.917 14.5466C116.917 14.2798 116.865 14.0525 116.762 13.8713C116.658 13.6901 116.514 13.5325 116.329 13.4045C116.144 13.2765 115.915 13.1682 115.642 13.0798L114.727 12.7962L113.844 12.5464C113.321 12.4019 112.852 12.2268 112.438 12.0209C112.025 11.8151 111.671 11.5739 111.377 11.2962C111.082 11.0186 110.858 10.6991 110.706 10.3376C110.553 9.97624 110.477 9.55647 110.477 9.07882C110.477 8.57859 110.575 8.11741 110.771 7.69482C110.967 7.27223 111.245 6.91129 111.605 6.61129C111.964 6.31129 112.4 6.07529 112.912 5.90259C113.425 5.72988 114 5.64706 114.645 5.64706C115.855 5.64706 116.813 5.93882 117.522 6.52235C118.231 7.10588 118.645 7.88706 118.765 8.86494L116.803 9.03153C116.685 8.53129 116.444 8.14212 116.084 7.86447C115.725 7.58682 115.223 7.44753 114.58 7.44753C113.981 7.44753 113.512 7.58918 113.175 7.87271C112.837 8.15624 112.668 8.52024 112.668 8.96447C112.668 9.22 112.715 9.43365 112.815 9.60612C112.915 9.77859 113.055 9.92847 113.24 10.0562C113.425 10.184 113.651 10.2981 113.918 10.3979C114.185 10.4976 114.488 10.6042 114.825 10.7151L115.659 10.9819C116.182 11.1485 116.653 11.3235 117.071 11.5066C117.489 11.6896 117.848 11.9096 118.142 12.1654C118.436 12.4212 118.662 12.7268 118.821 13.0824C118.979 13.4379 119.059 13.8776 119.059 14.4C119.059 14.956 118.95 15.4645 118.729 15.9254C118.516 16.3808 118.203 16.7824 117.814 17.1007C117.422 17.4231 116.956 17.6734 116.416 17.8508C115.877 18.0282 115.283 18.1176 114.629 18.1176C113.42 18.1176 112.412 17.8287 111.606 17.2506C110.8 16.6725 110.303 15.8 110.118 14.6353L112.112 14.4518V14.4471ZM124.202 11.5882H126.204C126.571 11.5882 126.91 11.5586 127.216 11.4988C127.521 11.4391 127.788 11.3393 128.016 11.1984C128.242 11.0602 128.426 10.8638 128.55 10.6299C128.678 10.3918 128.741 10.0993 128.741 9.75271C128.741 9.39553 128.678 9.09529 128.55 8.85153C128.428 8.61647 128.247 8.41762 128.024 8.27506C127.805 8.13435 127.538 8.03412 127.232 7.97459C126.927 7.91506 126.596 7.88518 126.24 7.88518H124.205V11.5906L124.202 11.5882ZM122.118 6.11765H126.487C127.299 6.11765 127.98 6.21035 128.53 6.39624C129.081 6.58212 129.525 6.83859 129.864 7.16635C130.203 7.49412 130.448 7.87882 130.598 8.31929C130.748 8.75976 130.823 9.23694 130.823 9.75271C130.823 10.3645 130.72 10.8969 130.517 11.3527C130.314 11.8085 130.014 12.18 129.625 12.4751C129.236 12.7701 128.763 12.9911 128.207 13.1386C127.652 13.2861 127.023 13.3598 126.325 13.3598H124.207V17.8824H122.118V6.11765ZM135.055 12.7536H138.981L138.335 10.8854L137.721 9.09718L137.307 7.88471H136.794L136.595 8.44165L136.371 9.06423L136.098 9.85106L135.734 10.8831L135.054 12.7513L135.055 12.7536ZM131.294 17.3089L135.519 6.11765H138.649L142.824 17.3089V17.8824H140.769L139.577 14.5233H134.425L133.232 17.8824H131.294V17.3089ZM155.294 14.7718C155.107 15.2311 154.862 15.6659 154.56 16.0687C154.253 16.4792 153.882 16.8383 153.462 17.1327C153.033 17.4362 152.535 17.6739 151.968 17.8527C151.401 18.0315 150.772 18.1176 150.078 18.1176C149.198 18.1176 148.397 17.9642 147.677 17.6579C146.956 17.3515 146.341 16.9285 145.831 16.3873C145.322 15.8461 144.929 15.2009 144.651 14.4518C144.374 13.7026 144.235 12.8913 144.235 12.0165C144.235 11.1416 144.374 10.3301 144.651 9.58118C144.929 8.83224 145.324 8.18447 145.839 7.63765C146.355 7.09082 146.973 6.66188 147.693 6.35059C148.414 6.03929 149.22 5.88 150.111 5.88C151.409 5.88 152.497 6.18118 153.371 6.78212C154.246 7.38306 154.865 8.18165 155.228 9.17647L153.134 9.58588C152.848 8.98471 152.449 8.51153 151.937 8.16706C151.425 7.82259 150.806 7.65059 150.08 7.65059C149.497 7.65059 148.977 7.76235 148.52 7.98565C148.063 8.20894 147.678 8.51671 147.367 8.90894C147.056 9.30118 146.814 9.76376 146.649 10.2979C146.484 10.832 146.401 11.4033 146.401 12.0155C146.401 12.6367 146.487 13.2108 146.657 13.7395C146.828 14.2682 147.075 14.7278 147.4 15.1122C147.722 15.4971 148.125 15.8065 148.58 16.0186C149.042 16.2367 149.568 16.348 150.164 16.348C150.935 16.348 151.57 16.1598 152.071 15.7904C152.572 15.4209 152.96 14.9649 153.235 14.4289L155.294 14.7718Z" fill="white"/>
<mask id="mask0" mask-type="alpha" maskUnits="userSpaceOnUse" x="157" y="5" width="9" height="13">
<path d="M157.986 5.97552H165.796V17.8541H157.986V5.97552Z" fill="white"/>
</mask>
<g mask="url(#mask0)">
<path fill-rule="evenodd" clip-rule="evenodd" d="M157.986 5.97552H165.679V7.79529H160.024V10.9059H165.285V12.6925H160.024V16.0346H165.798V17.8546H157.986V5.97552Z" fill="white"/>
</g>
</g>
<defs>
<clipPath id="clip0">
<rect width="166" height="24" fill="white"/>
</clipPath>
</defs>
</svg>
