<svg width="42" height="24" viewBox="0 0 42 24" fill="none" xmlns="http://www.w3.org/2000/svg">
<path d="M24.1944 4.24734C23.3611 4.59432 23 5.242 23 7C23 7 23.4167 6.65303 24.0833 6.44484C24.5694 6.29449 24.9167 6.09787 25.1667 5.94751C25.8889 5.49645 26 4.95286 26 4.00446C25.9861 4.00446 24.8472 3.94663 24.1944 4.24734Z" fill="white"/>
<path d="M19.0823 4.76676C18.3801 5.33592 18.2045 6.31541 18.2045 6.31541L15.9357 14.8396L14.072 7.86407C13.8965 7.12283 13.5453 6.20952 13.0186 5.57418C12.3704 4.76676 11.0199 4.71381 10.8579 4.71381C10.7363 4.71381 9.39936 4.76676 8.69711 5.57418C8.17042 6.20952 7.81929 7.12283 7.64373 7.86407L5.8881 14.8396L3.61929 6.31541C3.61929 6.31541 3.44373 5.4021 2.74148 4.76676C1.63408 3.78726 0 4.02552 0 4.02552L4.32154 19.9754C4.32154 19.9754 5.72604 20.0945 6.4283 19.7503C7.36013 19.2871 7.8328 18.9562 8.35949 16.7722C8.88617 14.8264 10.2907 9.16124 10.3987 8.76414C10.4527 8.59207 10.5743 8.07585 10.9254 8.07585C11.2765 8.07585 11.3981 8.53913 11.4521 8.76414C11.5736 9.16124 12.9646 14.8264 13.4913 16.7722C14.072 18.9429 14.4772 19.2871 15.4225 19.7503C16.1248 20.0945 17.5293 19.9754 17.5293 19.9754L21.8238 4.02552C21.8238 4.02552 20.1897 3.8005 19.0823 4.76676ZM25.7807 6.59338C25.7807 6.59338 25.4836 6.99047 24.9029 7.33461C24.4977 7.55963 24.1466 7.67876 23.7415 7.90378C23.0392 8.24792 22.8637 8.59207 22.8637 9.10829V19.9224C22.8637 19.9224 23.9711 20.0415 24.6733 19.6974C25.6051 19.2341 25.7807 18.7841 25.7807 16.8383V7.22872V6.59338ZM36.517 12.0335L42 4.07846C42 4.07846 39.7312 3.68137 38.5563 4.71381C37.8 5.34916 37.0437 6.54043 37.0437 6.54043L35.0585 9.39949C34.937 9.57156 34.8289 9.69069 34.6534 9.69069C34.4778 9.69069 34.3022 9.51862 34.2482 9.39949L32.263 6.54043C32.263 6.54043 31.4527 5.4021 30.7505 4.71381C29.5891 3.68137 27.3068 4.07846 27.3068 4.07846L32.6141 12.0203L27.1852 19.9621C27.1852 19.9621 29.5756 20.2533 30.7505 19.2209C31.5068 18.5855 32.209 17.5002 32.209 17.5002L34.1942 14.6411C34.3158 14.469 34.4238 14.3499 34.5994 14.3499C34.7749 14.3499 34.9505 14.522 35.0045 14.6411L36.9897 17.5002C36.9897 17.5002 37.746 18.5855 38.4482 19.2209C39.6096 20.2533 41.946 19.9621 41.946 19.9621L36.517 12.0335Z" fill="white"/>
</svg>
