<svg width="119" height="24" viewBox="0 0 119 24" fill="none" xmlns="http://www.w3.org/2000/svg">
<g clip-path="url(#clip0)">
<path fill-rule="evenodd" clip-rule="evenodd" d="M0.304172 2.34049C0.859543 1.01157 2.24797 0.0595006 3.69591 0.0595006C14.6248 0.0595006 25.5537 0.0595006 36.5025 0.0595006C37.4546 0.0396659 38.4066 0.396695 39.1008 1.03141C39.8942 1.74546 40.3504 2.81653 40.3306 3.8876C40.3306 8.07273 40.3306 12.2579 40.3306 16.4628C40.3108 18.3471 38.6645 20.0529 36.7802 20.0926C32.7934 20.1124 28.8066 20.0926 24.8199 20.0926C25.3554 21.4215 25.8909 22.7306 26.4265 24.0595C24.0463 22.7504 21.7058 21.4017 19.3058 20.1124C14.0695 20.0727 8.81326 20.1124 3.55706 20.0926C1.67277 20.0331 0.0264859 18.3471 0.00665119 16.4628C-0.0131835 12.357 0.00665111 8.25124 -0.0131836 4.16529C-0.0131836 3.55041 0.0463206 2.9157 0.304172 2.34049Z" fill="white"/>
<path fill-rule="evenodd" clip-rule="evenodd" d="M16.3307 2.63802C16.9257 2.00331 18.0761 2.20166 18.5323 2.93554C18.7704 3.3124 18.7902 3.8281 18.5919 4.2248C17.7588 5.89091 17.4018 7.73554 17.0844 9.5405C16.7076 11.9008 16.3902 14.3008 16.5092 16.7008C16.5489 17.3157 16.2514 18.0496 15.5968 18.2083C14.9819 18.3471 14.4067 17.9306 14.01 17.4942C12.2249 15.5703 11.2133 13.0909 10.4795 10.6116C9.74557 12.0595 9.01168 13.5273 8.29763 14.9752C7.80177 15.9669 7.26623 16.9785 6.47284 17.7719C6.13565 18.1091 5.56044 18.4066 5.12408 18.0694C4.46953 17.4942 4.31086 16.5818 4.03317 15.8083C2.98193 12.1785 2.38689 8.42976 1.77201 4.70083C1.63317 4.08596 1.89102 3.33224 2.5059 3.09422C3.00177 2.91571 3.65631 2.87604 4.07284 3.2529C4.37036 3.51075 4.4497 3.92728 4.5092 4.30414C4.94557 7.20001 5.44144 10.076 6.15548 12.9124C7.34557 10.6512 8.53565 8.39008 9.72573 6.10909C9.90424 5.7719 10.1224 5.43471 10.4398 5.23637C10.8761 4.95868 11.5109 4.97852 11.8877 5.37521C12.1852 5.69257 12.3042 6.14877 12.3836 6.5653C12.7406 8.42976 13.2166 10.2942 13.9109 12.0595C14.2084 9.38182 14.5852 6.66447 15.5571 4.14546C15.7753 3.60992 15.9737 3.07438 16.3307 2.63802ZM23.0547 4.08596C24.3439 3.92728 25.7323 4.36364 26.6051 5.33554C27.3191 6.14876 27.7158 7.20001 27.8547 8.25125C28.0728 10.0562 27.7357 11.9603 26.8629 13.5669C26.3671 14.4793 25.7323 15.3719 24.82 15.9074C23.491 16.7207 21.7059 16.6215 20.4166 15.7686C19.3852 15.0546 18.81 13.8645 18.572 12.6744C18.096 9.95703 18.9092 6.94215 20.9522 5.05786C21.5472 4.52232 22.2811 4.18513 23.0547 4.08596ZM23.3125 6.86282C22.6976 7.06116 22.3009 7.63637 21.9637 8.15207C21.1307 9.50083 20.8927 11.2661 21.5671 12.7141C21.7456 13.0909 22.0233 13.5074 22.4795 13.5868C22.9555 13.6661 23.3919 13.3884 23.729 13.0909C24.4828 12.4364 24.8596 11.4645 25.058 10.4926C25.2563 9.40166 25.1571 8.19174 24.5224 7.23967C24.2646 6.88265 23.7489 6.72397 23.3125 6.86282ZM33.3489 4.08596C34.5985 3.92728 35.9671 4.32397 36.8398 5.2562C37.6332 6.1091 38.0497 7.23967 38.1687 8.39008C38.3472 10.1355 38.0299 11.9603 37.1968 13.5074C36.7009 14.4397 36.0464 15.3521 35.0943 15.9074C33.8249 16.681 32.1191 16.6017 30.8497 15.8479C29.9968 15.3322 29.4216 14.4595 29.0844 13.5273C28.1919 10.6909 28.9456 7.35868 31.0084 5.21653C31.6828 4.62149 32.496 4.18513 33.3489 4.08596ZM33.6266 6.86282C32.9522 7.10083 32.5555 7.75538 32.1985 8.33058C31.4447 9.65951 31.2464 11.3851 31.9406 12.7934C32.1191 13.1901 32.4563 13.5669 32.9125 13.5868C33.4084 13.6066 33.8447 13.2893 34.2018 12.9521C34.9753 12.1983 35.3125 11.1273 35.4315 10.076C35.5505 9.10414 35.3918 8.0529 34.8166 7.21984C34.5786 6.88265 34.0629 6.72397 33.6266 6.86282Z" fill="#0B1C28"/>
<path fill-rule="evenodd" clip-rule="evenodd" d="M47.1141 4.46281C48.205 4.22479 49.3554 4.24463 50.4464 4.50248C50.4464 5.39504 50.4464 6.2876 50.4464 7.18016C49.5538 6.96198 48.5422 6.76364 47.6893 7.18016C46.6579 7.69587 46.0827 8.86611 46.0827 9.97685C46.0232 11.0876 46.4001 12.3372 47.3918 12.9719C48.3042 13.5669 49.4745 13.4479 50.4662 13.1702C50.4662 14.0628 50.4662 14.9554 50.4662 15.8479C49.1373 16.2248 47.6893 16.1851 46.4001 15.7091C44.853 15.1339 43.6232 13.7851 43.1472 12.1983C42.7902 10.9884 42.7505 9.69917 43.0282 8.46942C43.4844 6.50578 45.1505 4.89917 47.1141 4.46281ZM55.167 4.32396C56.5158 4.16528 57.9835 4.38347 59.0745 5.23636C60.1257 6.04958 60.6414 7.37851 60.8397 8.64793C61.0183 10.0562 60.9786 11.524 60.5422 12.8727C60.1654 14.0231 59.3918 15.0942 58.2811 15.6297C57.1505 16.1653 55.8216 16.205 54.6116 15.9273C53.5009 15.6694 52.5092 14.9355 51.9538 13.924C51.1802 12.5752 51.0414 10.9686 51.1009 9.44132C51.1604 8.13223 51.4976 6.76363 52.3703 5.75206C53.0844 4.93884 54.1158 4.44297 55.167 4.32396ZM55.5835 6.88264C55.0083 7.02149 54.6711 7.59669 54.5323 8.13223C54.2546 9.2033 54.2943 10.314 54.3736 11.405C54.453 12 54.5125 12.6347 54.929 13.1107C55.4844 13.7455 56.615 13.6661 57.1108 13.0116C57.448 12.595 57.5472 12.0595 57.6067 11.5438C57.7257 10.6314 57.7455 9.69917 57.6067 8.78677C57.5075 8.2314 57.3488 7.65619 56.9521 7.23967C56.5951 6.88264 56.0596 6.76364 55.5835 6.88264ZM108.483 4.50248C109.633 4.20496 110.843 4.24463 111.993 4.48264C112.013 5.37521 111.993 6.26777 112.013 7.18016C111.141 6.96198 110.169 6.76363 109.316 7.14049C108.324 7.59669 107.729 8.64793 107.65 9.69917C107.531 10.8893 107.848 12.238 108.899 12.9322C109.812 13.5669 111.002 13.4479 112.013 13.1504C111.993 14.043 112.033 14.9554 111.993 15.8479C110.585 16.205 109.038 16.1653 107.709 15.5901C106.241 14.9554 105.091 13.6066 104.674 12.0595C104.357 10.8694 104.317 9.59999 104.615 8.39008C105.051 6.52561 106.618 4.99835 108.483 4.50248ZM62.605 4.58182C63.8744 4.58182 65.1637 4.58182 66.4331 4.58182C66.8893 6.64463 67.3257 8.72727 67.7224 10.8099C68.0794 8.70743 68.5753 6.64463 69.0711 4.58182C70.3802 4.58182 71.6893 4.58182 72.9984 4.58182C73.5141 8.33058 74.01 12.0793 74.5058 15.8083C73.5141 15.8083 72.5025 15.8083 71.5108 15.8083C71.2331 13.2496 70.9951 10.6711 70.6976 8.11239C70.0827 10.6711 69.448 13.2496 68.8331 15.8083C68.1587 15.8083 67.4645 15.8083 66.7901 15.8083C66.1356 13.2496 65.5009 10.6711 64.8265 8.09256C64.5687 10.6512 64.3108 13.2297 64.053 15.8083C63.1009 15.8083 62.1488 15.8083 61.1769 15.8083C61.653 12.0793 62.129 8.33058 62.605 4.58182ZM76.3306 4.58182C77.6001 4.58182 78.8893 4.58182 80.1587 4.58182C80.6149 6.64463 81.0513 8.72727 81.448 10.8099C81.8249 8.72727 82.3009 6.64463 82.7968 4.58182H86.7042C87.2199 8.33058 87.7158 12.0793 88.2116 15.8083C87.2199 15.8083 86.2083 15.8083 85.2166 15.8083C84.9389 13.2496 84.6811 10.6711 84.4034 8.11239C83.7885 10.6711 83.1736 13.2496 82.5389 15.8083C81.8645 15.8083 81.1703 15.8083 80.4959 15.8083C79.8414 13.2297 79.1868 10.6711 78.5323 8.09256C78.2744 10.6711 78.0166 13.2297 77.7587 15.8083C76.8067 15.8083 75.8546 15.8083 74.8827 15.8083C75.3786 12.0793 75.8546 8.33058 76.3306 4.58182ZM89.0844 4.62148C91.1273 4.58181 93.1901 4.62149 95.2331 4.60165C95.2331 5.39504 95.2331 6.18842 95.2331 7.00165C94.2017 7.02148 93.1703 7.00165 92.1389 7.00165C92.1389 7.69586 92.1389 8.37025 92.1389 9.06446C93.0315 9.06446 93.924 9.06446 94.8166 9.06446C94.8166 9.83802 94.8166 10.6116 94.8166 11.3851C93.924 11.3851 93.0315 11.3851 92.1389 11.3851C92.1389 12.0595 92.1389 12.7537 92.1389 13.4479C93.1703 13.4479 94.2215 13.4479 95.2529 13.4479C95.2529 14.2413 95.2529 15.0347 95.2529 15.8479C93.21 15.8479 91.1472 15.8479 89.1042 15.8479C89.0844 12.0992 89.124 8.37024 89.0844 4.62148ZM96.1058 4.58182C97.3951 4.58182 98.6645 4.56198 99.9538 4.58182C101.164 4.62149 102.453 4.91901 103.346 5.7719C104.159 6.52562 104.436 7.7752 104.119 8.82644C103.861 9.67934 103.226 10.3736 102.433 10.7504C103.226 12.4364 104.04 14.1223 104.853 15.8083C103.782 15.8083 102.711 15.8083 101.66 15.8083C100.827 14.0826 100.013 12.357 99.1604 10.6512C99.1405 12.3769 99.1604 14.1025 99.1604 15.8083C98.1488 15.8083 97.1372 15.8083 96.1257 15.8083C96.1058 12.0793 96.1058 8.33058 96.1058 4.58182ZM99.1406 6.7438C99.1406 7.63636 99.1406 8.52892 99.1406 9.42148C99.6959 9.38181 100.291 9.36198 100.747 9.02479C101.283 8.6281 101.223 7.81487 100.886 7.29917C100.469 6.8033 99.7356 6.8033 99.1406 6.7438ZM112.866 4.60165C114.909 4.60165 116.952 4.60165 118.995 4.60165C118.995 5.39504 118.995 6.20826 118.995 7.00165C117.964 7.00165 116.912 7.00165 115.881 7.00165C115.881 7.69586 115.881 8.37025 115.881 9.06446C116.774 9.06446 117.666 9.06446 118.559 9.06446C118.559 9.83802 118.559 10.6116 118.559 11.3851H115.881C115.881 12.0793 115.881 12.7537 115.881 13.4479C116.932 13.4479 117.964 13.4479 119.015 13.4479C119.015 14.2413 119.015 15.0347 119.015 15.8479C116.972 15.8479 114.909 15.8479 112.866 15.8479C112.846 12.0793 112.866 8.33058 112.866 4.60165Z" fill="white"/>
</g>
<defs>
<clipPath id="clip0">
<rect width="119" height="24" fill="white"/>
</clipPath>
</defs>
</svg>
